<svg xmlns="http://www.w3.org/2000/svg" xmlns:xlink="http://www.w3.org/1999/xlink" width="300" zoomAndPan="magnify" viewBox="0 0 224.87999 225" height="300" preserveAspectRatio="xMidYMid meet" version="1.0"><defs><clipPath id="7af3814eea"><path d="M 0 0.0585938 L 224.761719 0.0585938 L 224.761719 224.9375 L 0 224.9375 Z M 0 0.0585938 " clip-rule="nonzero"/></clipPath><clipPath id="4b3ab82a0b"><path d="M 22.488281 131 L 81 131 L 81 200.089844 L 22.488281 200.089844 Z M 22.488281 131 " clip-rule="nonzero"/></clipPath><clipPath id="213867359c"><path d="M 96 187 L 196 187 L 196 200.089844 L 96 200.089844 Z M 96 187 " clip-rule="nonzero"/></clipPath><clipPath id="ce8e176e7d"><path d="M 111 106 L 202.390625 106 L 202.390625 182 L 111 182 Z M 111 106 " clip-rule="nonzero"/></clipPath><clipPath id="6a12ed01bb"><path d="M 86 131 L 114 131 L 114 200.089844 L 86 200.089844 Z M 86 131 " clip-rule="nonzero"/></clipPath><clipPath id="d74087bc9d"><path d="M 134 24.683594 L 201 24.683594 L 201 83 L 134 83 Z M 134 24.683594 " clip-rule="nonzero"/></clipPath></defs><g clip-path="url(#7af3814eea)"><path fill="none" d="M 0 0.0585938 L 224.878906 0.0585938 L 224.878906 224.941406 L 0 224.941406 Z M 0 0.0585938 " fill-opacity="1" fill-rule="nonzero"/><path fill="none" d="M 0 0.0585938 L 224.878906 0.0585938 L 224.878906 224.941406 L 0 224.941406 Z M 0 0.0585938 " fill-opacity="1" fill-rule="nonzero"/></g><path fill="#000000" d="M 97.28125 122.671875 L 97.28125 129.171875 L 83.273438 137.160156 L 69.1875 128.980469 L 69.1875 122.785156 C 73.242188 124.8125 77.800781 125.957031 82.621094 125.957031 L 83.695312 125.957031 C 88.59375 125.921875 93.1875 124.773438 97.28125 122.671875 Z M 97.28125 122.671875 " fill-opacity="1" fill-rule="nonzero"/><g clip-path="url(#4b3ab82a0b)"><path fill="#000000" d="M 80.25 142.359375 L 79.980469 200.007812 L 22.488281 200.007812 L 28.6875 159.601562 C 29.992188 151.191406 35.503906 145.800781 46.601562 142.089844 L 51.695312 140.371094 C 51.769531 140.371094 51.808594 140.332031 51.886719 140.292969 C 51.921875 140.292969 51.960938 140.257812 52.039062 140.257812 C 52.078125 140.257812 52.113281 140.21875 52.152344 140.21875 C 52.34375 140.140625 52.535156 140.027344 52.6875 139.914062 C 52.726562 139.875 52.765625 139.875 52.765625 139.835938 C 52.84375 139.796875 52.878906 139.757812 52.917969 139.683594 L 52.996094 139.605469 L 61.53125 131.539062 L 64.441406 133.222656 C 64.476562 133.222656 64.515625 133.261719 64.515625 133.261719 C 64.554688 133.296875 64.59375 133.296875 64.632812 133.335938 Z M 80.25 142.359375 " fill-opacity="1" fill-rule="nonzero"/></g><path fill="#000000" d="M 118.945312 89.984375 C 118.945312 93.273438 116.726562 96.0625 113.703125 96.90625 C 113.703125 96.597656 113.703125 96.253906 113.703125 95.949219 L 113.703125 83.105469 C 116.726562 83.945312 118.945312 86.734375 118.945312 89.984375 Z M 118.945312 89.984375 " fill-opacity="1" fill-rule="nonzero"/><path fill="#000000" d="M 52.613281 96.90625 C 49.589844 96.0625 47.367188 93.273438 47.367188 89.984375 C 47.367188 86.699219 49.589844 83.945312 52.613281 83.066406 L 52.613281 95.949219 C 52.574219 96.253906 52.574219 96.597656 52.613281 96.90625 Z M 52.613281 96.90625 " fill-opacity="1" fill-rule="nonzero"/><path fill="#000000" d="M 107.65625 78.859375 L 107.65625 95.949219 C 107.65625 97.171875 107.578125 98.394531 107.386719 99.582031 C 107.386719 99.65625 107.386719 99.695312 107.347656 99.773438 C 106.390625 105.734375 103.214844 110.972656 98.699219 114.605469 C 98.507812 114.71875 98.355469 114.835938 98.199219 114.988281 C 94.183594 118.046875 89.128906 119.878906 83.695312 119.878906 L 82.582031 119.878906 C 77.226562 119.878906 72.25 118.121094 68.230469 115.101562 C 68.078125 114.949219 67.921875 114.835938 67.730469 114.71875 C 63.136719 111.085938 59.886719 105.773438 58.929688 99.734375 C 58.738281 98.511719 58.621094 97.210938 58.621094 95.910156 L 58.621094 78.746094 C 61.417969 77.597656 64.59375 75.039062 65.664062 70.335938 C 72.667969 74.082031 87.558594 80.199219 107.65625 78.859375 Z M 107.65625 78.859375 " fill-opacity="1" fill-rule="nonzero"/><path fill="#000000" d="M 116.878906 73.050781 L 116.878906 77.828125 C 115.886719 77.40625 114.8125 77.101562 113.703125 76.949219 L 113.703125 75.609375 C 113.703125 74.769531 113.359375 73.929688 112.707031 73.355469 C 112.058594 72.78125 111.214844 72.515625 110.371094 72.589844 C 82.964844 75.421875 64.898438 62.917969 64.707031 62.804688 C 63.75 62.117188 62.488281 62.039062 61.453125 62.652344 C 60.421875 63.226562 59.847656 64.371094 59.960938 65.519531 C 60.574219 72.285156 56.058594 73.394531 55.175781 73.546875 C 53.644531 73.699219 52.574219 75 52.574219 76.527344 L 52.574219 76.949219 C 51.464844 77.101562 50.390625 77.40625 49.398438 77.828125 L 49.398438 73.050781 C 49.398438 54.472656 64.515625 39.332031 83.15625 39.332031 C 101.761719 39.332031 116.878906 54.472656 116.878906 73.050781 Z M 116.878906 73.050781 " fill-opacity="1" fill-rule="nonzero"/><g clip-path="url(#213867359c)"><path fill="#000000" d="M 195.003906 187.316406 C 193.703125 194.542969 187.386719 200.007812 179.769531 200.007812 L 111.710938 200.007812 C 104.132812 200.007812 97.78125 194.503906 96.476562 187.316406 L 133.953125 187.316406 L 133.953125 193.664062 C 133.953125 195.34375 135.292969 196.683594 136.976562 196.683594 L 154.46875 196.683594 C 156.152344 196.683594 157.492188 195.34375 157.492188 193.664062 L 157.492188 187.316406 Z M 195.003906 187.316406 " fill-opacity="1" fill-rule="nonzero"/></g><g clip-path="url(#ce8e176e7d)"><path fill="#000000" d="M 126.410156 106.15625 L 119.789062 139.835938 L 119.75 139.988281 L 111.636719 181.277344 L 187.617188 181.277344 L 202.390625 106.15625 Z M 135.214844 135.132812 C 135.214844 130.355469 139.121094 126.492188 143.867188 126.492188 C 148.652344 126.492188 152.515625 130.394531 152.515625 135.132812 C 152.515625 139.914062 148.613281 143.773438 143.867188 143.773438 C 139.082031 143.773438 135.214844 139.914062 135.214844 135.132812 Z M 147.273438 165.027344 C 146.699219 165.945312 145.703125 166.441406 144.707031 166.441406 C 144.171875 166.441406 143.597656 166.289062 143.101562 165.984375 C 141.683594 165.105469 141.261719 163.230469 142.144531 161.816406 L 166.832031 122.441406 C 167.710938 121.027344 169.589844 120.605469 171.003906 121.484375 C 172.421875 122.367188 172.839844 124.238281 171.960938 125.652344 Z M 170.199219 160.976562 C 165.414062 160.976562 161.550781 157.078125 161.550781 152.335938 C 161.550781 147.558594 165.453125 143.695312 170.199219 143.695312 C 174.984375 143.695312 178.851562 147.558594 178.851562 152.335938 C 178.851562 157.117188 174.984375 160.976562 170.199219 160.976562 Z M 170.199219 160.976562 " fill-opacity="1" fill-rule="nonzero"/></g><g clip-path="url(#6a12ed01bb)"><path fill="#000000" d="M 90.199219 184.335938 L 90.199219 184.601562 C 90.199219 190.679688 92.726562 196.148438 96.785156 200.046875 L 86.027344 200.046875 L 86.296875 142.398438 L 101.761719 133.566406 C 101.800781 133.527344 101.835938 133.527344 101.875 133.488281 L 105.242188 131.578125 L 113.359375 140.066406 L 113.589844 140.292969 L 105.550781 181.3125 L 93.226562 181.3125 C 91.539062 181.3125 90.199219 182.652344 90.199219 184.335938 Z M 90.199219 184.335938 " fill-opacity="1" fill-rule="nonzero"/></g><path fill="#000000" d="M 146.507812 135.132812 C 146.507812 136.585938 145.320312 137.773438 143.867188 137.773438 C 142.410156 137.773438 141.226562 136.585938 141.226562 135.132812 C 141.226562 133.679688 142.410156 132.496094 143.867188 132.496094 C 145.320312 132.496094 146.507812 133.679688 146.507812 135.132812 Z M 146.507812 135.132812 " fill-opacity="1" fill-rule="nonzero"/><path fill="#000000" d="M 172.84375 152.335938 C 172.84375 153.789062 171.65625 154.976562 170.199219 154.976562 C 168.746094 154.976562 167.558594 153.789062 167.558594 152.335938 C 167.558594 150.882812 168.746094 149.699219 170.199219 149.699219 C 171.65625 149.699219 172.84375 150.882812 172.84375 152.335938 Z M 172.84375 152.335938 " fill-opacity="1" fill-rule="nonzero"/><path fill="#000000" d="M 140 187.316406 L 151.484375 187.316406 L 151.484375 190.640625 L 140 190.640625 Z M 140 187.316406 " fill-opacity="1" fill-rule="nonzero"/><g clip-path="url(#d74087bc9d)"><path fill="#000000" d="M 198.257812 24.730469 L 136.746094 24.730469 C 135.253906 24.730469 134.066406 26.027344 134.066406 27.671875 L 134.066406 55.808594 C 134.066406 57.414062 135.253906 58.753906 136.746094 58.753906 L 140.917969 58.753906 C 141.339844 58.753906 141.796875 58.828125 142.179688 59.019531 C 143.253906 59.515625 143.902344 60.585938 143.902344 61.734375 L 143.902344 82.914062 L 171.347656 60.664062 C 172.878906 59.441406 174.792969 58.753906 176.746094 58.753906 L 198.179688 58.753906 C 199.675781 58.753906 200.859375 57.453125 200.859375 55.808594 L 200.859375 27.671875 C 200.9375 26.066406 199.710938 24.730469 198.257812 24.730469 Z M 184.59375 55.730469 L 150.410156 55.730469 C 148.726562 55.730469 147.386719 54.394531 147.386719 52.710938 C 147.386719 51.066406 148.726562 49.691406 150.410156 49.691406 L 184.59375 49.691406 C 186.277344 49.691406 187.617188 51.03125 187.617188 52.710938 C 187.617188 54.394531 186.238281 55.730469 184.59375 55.730469 Z M 184.59375 45.066406 L 150.410156 45.066406 C 148.726562 45.066406 147.386719 43.726562 147.386719 42.046875 C 147.386719 40.363281 148.726562 39.027344 150.410156 39.027344 L 184.59375 39.027344 C 186.277344 39.027344 187.617188 40.363281 187.617188 42.046875 C 187.617188 43.726562 186.238281 45.066406 184.59375 45.066406 Z M 184.59375 34.363281 L 150.410156 34.363281 C 148.726562 34.363281 147.386719 33.023438 147.386719 31.34375 C 147.386719 29.660156 148.726562 28.320312 150.410156 28.320312 L 184.59375 28.320312 C 186.277344 28.320312 187.617188 29.660156 187.617188 31.34375 C 187.617188 33.023438 186.238281 34.363281 184.59375 34.363281 Z M 184.59375 34.363281 " fill-opacity="1" fill-rule="nonzero"/></g></svg>