<svg xmlns="http://www.w3.org/2000/svg" xmlns:xlink="http://www.w3.org/1999/xlink" width="300" zoomAndPan="magnify" viewBox="0 0 224.87999 225" height="300" preserveAspectRatio="xMidYMid meet" version="1.0"><defs><clipPath id="c31d76ef3c"><path d="M 0 0.0585938 L 224.761719 0.0585938 L 224.761719 224.9375 L 0 224.9375 Z M 0 0.0585938 " clip-rule="nonzero"/></clipPath><clipPath id="76784e4ba5"><path d="M 22.488281 22.546875 L 202.390625 22.546875 L 202.390625 202.453125 L 22.488281 202.453125 Z M 22.488281 22.546875 " clip-rule="nonzero"/></clipPath></defs><g clip-path="url(#c31d76ef3c)"><path fill="none" d="M 0 0.0585938 L 224.878906 0.0585938 L 224.878906 224.941406 L 0 224.941406 Z M 0 0.0585938 " fill-opacity="1" fill-rule="nonzero"/><path fill="none" d="M 0 0.0585938 L 224.878906 0.0585938 L 224.878906 224.941406 L 0 224.941406 Z M 0 0.0585938 " fill-opacity="1" fill-rule="nonzero"/></g><g clip-path="url(#76784e4ba5)"><path fill="#ffffff" d="M 202.363281 112.476562 C 202.363281 162.15625 162.09375 202.421875 112.417969 202.421875 C 62.742188 202.421875 22.472656 162.15625 22.472656 112.476562 C 22.472656 62.800781 62.742188 22.535156 112.417969 22.535156 C 162.09375 22.535156 202.363281 62.800781 202.363281 112.476562 Z M 145.210938 108.628906 L 93.269531 77.148438 C 91.882812 76.3125 90.140625 76.285156 88.734375 77.074219 C 87.324219 77.875 86.441406 79.371094 86.441406 80.996094 L 86.441406 143.960938 C 86.441406 145.585938 87.324219 147.082031 88.734375 147.878906 C 89.417969 148.265625 90.175781 148.457031 90.941406 148.457031 C 91.75 148.457031 92.558594 148.242188 93.269531 147.808594 L 145.210938 116.328125 C 146.550781 115.507812 147.378906 114.050781 147.378906 112.476562 C 147.378906 110.90625 146.5625 109.449219 145.210938 108.628906 Z M 145.210938 108.628906 " fill-opacity="1" fill-rule="nonzero"/></g></svg>