<svg xmlns="http://www.w3.org/2000/svg" xmlns:xlink="http://www.w3.org/1999/xlink" width="300" zoomAndPan="magnify" viewBox="0 0 224.87999 225" height="300" preserveAspectRatio="xMidYMid meet" version="1.0"><defs><clipPath id="d5f79bd3b6"><path d="M 0 0.0585938 L 224.761719 0.0585938 L 224.761719 224.9375 L 0 224.9375 Z M 0 0.0585938 " clip-rule="nonzero"/></clipPath><clipPath id="64a5e1f6dc"><path d="M 22.488281 24.347656 L 202.390625 24.347656 L 202.390625 200.503906 L 22.488281 200.503906 Z M 22.488281 24.347656 " clip-rule="nonzero"/></clipPath></defs><g clip-path="url(#d5f79bd3b6)"><path fill="none" d="M 0 0.0585938 L 224.878906 0.0585938 L 224.878906 224.941406 L 0 224.941406 Z M 0 0.0585938 " fill-opacity="1" fill-rule="nonzero"/><path fill="none" d="M 0 0.0585938 L 224.878906 0.0585938 L 224.878906 224.941406 L 0 224.941406 Z M 0 0.0585938 " fill-opacity="1" fill-rule="nonzero"/></g><path fill="#ffffff" d="M 96.703125 59.617188 L 94.265625 59.617188 C 91.410156 59.617188 89.097656 61.738281 89.097656 64.355469 L 89.097656 84.425781 L 101.875 84.425781 L 101.875 64.355469 C 101.871094 61.742188 99.558594 59.617188 96.703125 59.617188 Z M 96.703125 59.617188 " fill-opacity="1" fill-rule="nonzero"/><path fill="#ffffff" d="M 130.957031 59.617188 L 128.515625 59.617188 C 125.664062 59.617188 123.351562 61.738281 123.351562 64.355469 L 123.351562 84.425781 L 136.125 84.425781 L 136.125 64.355469 C 136.125 61.742188 133.8125 59.617188 130.957031 59.617188 Z M 130.957031 59.617188 " fill-opacity="1" fill-rule="nonzero"/><g clip-path="url(#64a5e1f6dc)"><path fill="#ffffff" d="M 112.613281 24.523438 C 63 24.523438 22.636719 64.851562 22.636719 114.425781 C 22.636719 138.359375 31.941406 160.882812 48.835938 177.847656 C 58.839844 187.894531 71.222656 195.519531 84.640625 199.898438 C 85.535156 200.191406 86.441406 200.332031 87.332031 200.332031 C 90.980469 200.332031 94.375 198.011719 95.570312 194.355469 C 97.054688 189.808594 94.570312 184.921875 90.023438 183.4375 C 79.199219 179.902344 69.203125 173.746094 61.125 165.628906 C 47.484375 151.933594 39.972656 133.75 39.972656 114.425781 C 39.972656 74.402344 72.558594 41.839844 112.617188 41.839844 C 152.675781 41.839844 185.261719 74.402344 185.261719 114.425781 C 185.261719 133.824219 177.710938 152.039062 164 165.742188 C 158.738281 170.46875 145.675781 179.957031 137.835938 179.957031 C 133.804688 179.957031 130.792969 178.691406 128.347656 175.972656 C 122.144531 169.070312 120.785156 155.089844 120.84375 145.355469 C 135.882812 144.597656 147.855469 132.210938 147.855469 116.988281 L 147.855469 90.042969 L 77.371094 90.042969 L 77.371094 116.988281 C 77.371094 131.90625 88.871094 144.121094 103.496094 145.3125 C 103.40625 156.914062 105.035156 175.929688 115.425781 187.511719 C 121.152344 193.902344 128.902344 197.277344 137.835938 197.277344 C 154.597656 197.277344 173.679688 180.355469 175.796875 178.429688 L 176.078125 178.167969 C 193.175781 161.167969 202.589844 138.535156 202.589844 114.425781 C 202.589844 64.851562 162.226562 24.523438 112.613281 24.523438 Z M 112.613281 24.523438 " fill-opacity="1" fill-rule="nonzero"/></g></svg>