<svg xmlns="http://www.w3.org/2000/svg" viewBox="0 0 24 24" role="img" aria-label="Carrito">
  <path fill="#f0e50d" d="M7.2 18.1h10.9a2 2 0 0 0 1.9-1.5l1.2-5.2a2 2 0 0 0-1.9-2.5H6.3l-.4-2A2.3 2.3 0 0 0 3.6 5H2.7a1.1 1.1 0 0 0 0 2.2h.8l1.8 8.9a2.5 2.5 0 0 0 1.9 2Z"/>
  <path fill="#ff0000" d="M8.1 10.8h10.7l-1.1 4.9H9.2Z"/>
  <path fill="#111111" d="M2.7 4.2h.9a3 3 0 0 1 3 2.4l.3 1.5h12.4a2.8 2.8 0 0 1 2.7 3.5l-1.2 5.2a2.8 2.8 0 0 1-2.7 2.1H7.2a3.2 3.2 0 0 1-2.6-2.6L2.9 8H2.7a1.9 1.9 0 1 1 0-3.8Zm3.8 5.6 1.2 5.9c.1.3.3.5.6.5h9.2c.3 0 .5-.2.6-.5l1.1-4.9c.1-.5-.2-1-.7-1Z"/>
  <path fill="#ffffff" d="M8.2 10.8h10.5l-.4 1.7H8.6Z" opacity=".8"/>
  <path fill="#111111" d="M8.5 20.2a1.8 1.8 0 1 1 0 3.6 1.8 1.8 0 0 1 0-3.6Zm8.9 0a1.8 1.8 0 1 1 0 3.6 1.8 1.8 0 0 1 0-3.6Z"/>
  <path fill="#ffffff" d="M8.5 21.4a.6.6 0 1 1 0 1.2.6.6 0 0 1 0-1.2Zm8.9 0a.6.6 0 1 1 0 1.2.6.6 0 0 1 0-1.2Z"/>
</svg>
