<svg xmlns="http://www.w3.org/2000/svg" xmlns:xlink="http://www.w3.org/1999/xlink" width="300" zoomAndPan="magnify" viewBox="0 0 224.87999 225" height="300" preserveAspectRatio="xMidYMid meet" version="1.0"><defs><clipPath id="233d73300c"><path d="M 0 0.0585938 L 224.761719 0.0585938 L 224.761719 224.9375 L 0 224.9375 Z M 0 0.0585938 " clip-rule="nonzero"/></clipPath><clipPath id="4faa06cea6"><path d="M 28 29 L 200.894531 29 L 200.894531 202.453125 L 28 202.453125 Z M 28 29 " clip-rule="nonzero"/></clipPath></defs><g clip-path="url(#233d73300c)"><path fill="none" d="M 0 0.0585938 L 224.878906 0.0585938 L 224.878906 224.941406 L 0 224.941406 Z M 0 0.0585938 " fill-opacity="1" fill-rule="nonzero"/><path fill="none" d="M 0 0.0585938 L 224.878906 0.0585938 L 224.878906 224.941406 L 0 224.941406 Z M 0 0.0585938 " fill-opacity="1" fill-rule="nonzero"/></g><path fill="#ffffff" d="M 151.675781 155.992188 L 77.855469 155.992188 C 76.15625 155.992188 74.777344 154.609375 74.777344 152.914062 L 74.777344 79.015625 C 74.777344 77.3125 76.15625 75.933594 77.855469 75.933594 L 151.675781 75.933594 C 153.371094 75.933594 154.753906 77.3125 154.753906 79.015625 L 154.753906 152.914062 C 154.753906 154.609375 153.371094 155.992188 151.675781 155.992188 Z M 80.929688 149.835938 L 148.601562 149.835938 L 148.601562 82.09375 L 80.929688 82.09375 Z M 80.929688 149.835938 " fill-opacity="1" fill-rule="nonzero"/><g clip-path="url(#4faa06cea6)"><path fill="#ffffff" d="M 197.816406 75.933594 C 199.507812 75.933594 200.894531 74.554688 200.894531 72.855469 C 200.894531 71.15625 199.507812 69.777344 197.816406 69.777344 L 179.359375 69.777344 L 179.359375 63.617188 L 197.816406 63.617188 C 199.507812 63.617188 200.894531 62.238281 200.894531 60.539062 C 200.894531 58.839844 199.507812 57.460938 197.816406 57.460938 L 179.359375 57.460938 L 179.359375 54.378906 C 179.359375 52.679688 177.976562 51.300781 176.285156 51.300781 L 173.210938 51.300781 L 173.210938 32.828125 C 173.210938 31.125 171.824219 29.746094 170.132812 29.746094 C 168.441406 29.746094 167.058594 31.125 167.058594 32.828125 L 167.058594 51.300781 L 160.90625 51.300781 L 160.90625 32.828125 C 160.90625 31.125 159.519531 29.746094 157.828125 29.746094 C 156.136719 29.746094 154.753906 31.125 154.753906 32.828125 L 154.753906 51.300781 L 148.601562 51.300781 L 148.601562 32.828125 C 148.601562 31.125 147.21875 29.746094 145.527344 29.746094 C 143.835938 29.746094 142.449219 31.125 142.449219 32.828125 L 142.449219 51.300781 L 136.296875 51.300781 L 136.296875 32.828125 C 136.296875 31.125 134.914062 29.746094 133.222656 29.746094 C 131.53125 29.746094 130.144531 31.125 130.144531 32.828125 L 130.144531 51.300781 L 123.996094 51.300781 L 123.996094 32.828125 C 123.996094 31.125 122.609375 29.746094 120.917969 29.746094 C 119.226562 29.746094 117.84375 31.125 117.84375 32.828125 L 117.84375 51.300781 L 111.691406 51.300781 L 111.691406 32.828125 C 111.691406 31.125 110.3125 29.746094 108.613281 29.746094 C 106.917969 29.746094 105.539062 31.125 105.539062 32.828125 L 105.539062 51.300781 L 99.386719 51.300781 L 99.386719 32.828125 C 99.386719 31.125 98.007812 29.746094 96.3125 29.746094 C 94.613281 29.746094 93.234375 31.125 93.234375 32.828125 L 93.234375 51.300781 L 87.082031 51.300781 L 87.082031 32.828125 C 87.082031 31.125 85.703125 29.746094 84.007812 29.746094 C 82.308594 29.746094 80.929688 31.125 80.929688 32.828125 L 80.929688 51.300781 L 74.777344 51.300781 L 74.777344 32.828125 C 74.777344 31.125 73.402344 29.746094 71.703125 29.746094 C 70.003906 29.746094 68.628906 31.125 68.628906 32.828125 L 68.628906 51.300781 L 62.476562 51.300781 L 62.476562 32.828125 C 62.476562 31.125 61.097656 29.746094 59.398438 29.746094 C 57.703125 29.746094 56.324219 31.125 56.324219 32.828125 L 56.324219 51.300781 L 53.246094 51.300781 C 51.550781 51.300781 50.171875 52.679688 50.171875 54.378906 L 50.171875 57.460938 L 31.714844 57.460938 C 30.019531 57.460938 28.640625 58.839844 28.640625 60.539062 C 28.640625 62.238281 30.019531 63.617188 31.714844 63.617188 L 50.171875 63.617188 L 50.171875 69.777344 L 31.714844 69.777344 C 30.019531 69.777344 28.640625 71.15625 28.640625 72.855469 C 28.640625 74.554688 30.019531 75.933594 31.714844 75.933594 L 50.171875 75.933594 L 50.171875 82.09375 L 31.714844 82.09375 C 30.019531 82.09375 28.640625 83.472656 28.640625 85.171875 C 28.640625 86.871094 30.019531 88.25 31.714844 88.25 L 50.171875 88.25 L 50.171875 94.410156 L 31.714844 94.410156 C 30.019531 94.410156 28.640625 95.789062 28.640625 97.488281 C 28.640625 99.1875 30.019531 100.566406 31.714844 100.566406 L 50.171875 100.566406 L 50.171875 106.726562 L 31.714844 106.726562 C 30.019531 106.726562 28.640625 108.105469 28.640625 109.804688 C 28.640625 111.503906 30.019531 112.886719 31.714844 112.886719 L 50.171875 112.886719 L 50.171875 119.042969 L 31.714844 119.042969 C 30.019531 119.042969 28.640625 120.429688 28.640625 122.121094 C 28.640625 123.816406 30.019531 125.203125 31.714844 125.203125 L 50.171875 125.203125 L 50.171875 131.359375 L 31.714844 131.359375 C 30.019531 131.359375 28.640625 132.746094 28.640625 134.4375 C 28.640625 136.132812 30.019531 137.519531 31.714844 137.519531 L 50.171875 137.519531 L 50.171875 143.675781 L 31.714844 143.675781 C 30.019531 143.675781 28.640625 145.0625 28.640625 146.753906 C 28.640625 148.449219 30.019531 149.835938 31.714844 149.835938 L 50.171875 149.835938 L 50.171875 155.992188 L 31.714844 155.992188 C 30.019531 155.992188 28.640625 157.378906 28.640625 159.074219 C 28.640625 160.765625 30.019531 162.152344 31.714844 162.152344 L 50.171875 162.152344 L 50.171875 168.308594 L 31.714844 168.308594 C 30.019531 168.308594 28.640625 169.695312 28.640625 171.390625 C 28.640625 173.082031 30.019531 174.46875 31.714844 174.46875 L 50.171875 174.46875 L 50.171875 177.546875 C 50.171875 179.242188 51.550781 180.625 53.246094 180.625 L 56.324219 180.625 L 56.324219 199.101562 C 56.324219 200.796875 57.703125 202.179688 59.398438 202.179688 C 61.097656 202.179688 62.476562 200.796875 62.476562 199.101562 L 62.476562 180.625 L 68.628906 180.625 L 68.628906 199.101562 C 68.628906 200.796875 70.003906 202.179688 71.703125 202.179688 C 73.402344 202.179688 74.777344 200.796875 74.777344 199.101562 L 74.777344 180.625 L 80.929688 180.625 L 80.929688 199.101562 C 80.929688 200.796875 82.308594 202.179688 84.007812 202.179688 C 85.703125 202.179688 87.082031 200.796875 87.082031 199.101562 L 87.082031 180.625 L 93.234375 180.625 L 93.234375 199.101562 C 93.234375 200.796875 94.613281 202.179688 96.3125 202.179688 C 98.007812 202.179688 99.386719 200.796875 99.386719 199.101562 L 99.386719 180.625 L 105.539062 180.625 L 105.539062 199.101562 C 105.539062 200.796875 106.917969 202.179688 108.613281 202.179688 C 110.3125 202.179688 111.691406 200.796875 111.691406 199.101562 L 111.691406 180.625 L 117.84375 180.625 L 117.84375 199.101562 C 117.84375 200.796875 119.226562 202.179688 120.917969 202.179688 C 122.609375 202.179688 123.996094 200.796875 123.996094 199.101562 L 123.996094 180.625 L 130.144531 180.625 L 130.144531 199.101562 C 130.144531 200.796875 131.53125 202.179688 133.222656 202.179688 C 134.914062 202.179688 136.296875 200.796875 136.296875 199.101562 L 136.296875 180.625 L 142.449219 180.625 L 142.449219 199.101562 C 142.449219 200.796875 143.835938 202.179688 145.527344 202.179688 C 147.21875 202.179688 148.601562 200.796875 148.601562 199.101562 L 148.601562 180.625 L 154.753906 180.625 L 154.753906 199.101562 C 154.753906 200.796875 156.136719 202.179688 157.828125 202.179688 C 159.519531 202.179688 160.90625 200.796875 160.90625 199.101562 L 160.90625 180.625 L 167.058594 180.625 L 167.058594 199.101562 C 167.058594 200.796875 168.441406 202.179688 170.132812 202.179688 C 171.824219 202.179688 173.210938 200.796875 173.210938 199.101562 L 173.210938 180.625 L 176.285156 180.625 C 177.976562 180.625 179.359375 179.242188 179.359375 177.546875 L 179.359375 174.46875 L 197.816406 174.46875 C 199.507812 174.46875 200.894531 173.082031 200.894531 171.390625 C 200.894531 169.695312 199.507812 168.308594 197.816406 168.308594 L 179.359375 168.308594 L 179.359375 162.152344 L 197.816406 162.152344 C 199.507812 162.152344 200.894531 160.765625 200.894531 159.074219 C 200.894531 157.378906 199.507812 155.992188 197.816406 155.992188 L 179.359375 155.992188 L 179.359375 149.835938 L 197.816406 149.835938 C 199.507812 149.835938 200.894531 148.449219 200.894531 146.753906 C 200.894531 145.0625 199.507812 143.675781 197.816406 143.675781 L 179.359375 143.675781 L 179.359375 137.519531 L 197.816406 137.519531 C 199.507812 137.519531 200.894531 136.132812 200.894531 134.4375 C 200.894531 132.746094 199.507812 131.359375 197.816406 131.359375 L 179.359375 131.359375 L 179.359375 125.203125 L 197.816406 125.203125 C 199.507812 125.203125 200.894531 123.816406 200.894531 122.121094 C 200.894531 120.429688 199.507812 119.042969 197.816406 119.042969 L 179.359375 119.042969 L 179.359375 112.886719 L 197.816406 112.886719 C 199.507812 112.886719 200.894531 111.503906 200.894531 109.804688 C 200.894531 108.105469 199.507812 106.726562 197.816406 106.726562 L 179.359375 106.726562 L 179.359375 100.566406 L 197.816406 100.566406 C 199.507812 100.566406 200.894531 99.1875 200.894531 97.488281 C 200.894531 95.789062 199.507812 94.410156 197.816406 94.410156 L 179.359375 94.410156 L 179.359375 88.25 L 197.816406 88.25 C 199.507812 88.25 200.894531 86.871094 200.894531 85.171875 C 200.894531 83.472656 199.507812 82.09375 197.816406 82.09375 L 179.359375 82.09375 L 179.359375 75.933594 Z M 160.90625 152.914062 C 160.90625 158.007812 156.765625 162.152344 151.675781 162.152344 L 77.855469 162.152344 C 72.765625 162.152344 68.628906 158.007812 68.628906 152.914062 L 68.628906 79.015625 C 68.628906 73.921875 72.765625 69.777344 77.855469 69.777344 L 151.675781 69.777344 C 156.765625 69.777344 160.90625 73.921875 160.90625 79.015625 Z M 160.90625 152.914062 " fill-opacity="1" fill-rule="nonzero"/></g></svg>