<svg xmlns="http://www.w3.org/2000/svg" xmlns:xlink="http://www.w3.org/1999/xlink" width="300" zoomAndPan="magnify" viewBox="0 0 224.87999 225" height="300" preserveAspectRatio="xMidYMid meet" version="1.0"><defs><clipPath id="05fff2f05e"><path d="M 0 0.0585938 L 224.761719 0.0585938 L 224.761719 224.9375 L 0 224.9375 Z M 0 0.0585938 " clip-rule="nonzero"/></clipPath><clipPath id="24e069f0f3"><path d="M 22.488281 22.546875 L 202.390625 22.546875 L 202.390625 202.453125 L 22.488281 202.453125 Z M 22.488281 22.546875 " clip-rule="nonzero"/></clipPath></defs><g clip-path="url(#05fff2f05e)"><path fill="#ffffff" d="M 0 0.0585938 L 224.878906 0.0585938 L 224.878906 224.941406 L 0 224.941406 Z M 0 0.0585938 " fill-opacity="1" fill-rule="nonzero"/><path fill="#ffffff" d="M 0 0.0585938 L 224.878906 0.0585938 L 224.878906 224.941406 L 0 224.941406 Z M 0 0.0585938 " fill-opacity="1" fill-rule="nonzero"/></g><g clip-path="url(#24e069f0f3)"><path fill="#000000" d="M 94.445312 22.535156 C 54.832031 22.535156 22.472656 54.890625 22.472656 94.507812 C 22.472656 134.125 54.832031 166.480469 94.445312 166.480469 C 110.210938 166.480469 124.769531 161.28125 136.652344 152.617188 L 183.023438 198.988281 C 183.542969 199.527344 184.109375 200.011719 184.722656 200.4375 C 185.339844 200.863281 185.988281 201.226562 186.675781 201.523438 C 187.363281 201.820312 188.070312 202.042969 188.804688 202.199219 C 189.535156 202.355469 190.273438 202.4375 191.023438 202.445312 C 191.773438 202.453125 192.511719 202.386719 193.246094 202.246094 C 193.984375 202.105469 194.695312 201.894531 195.390625 201.609375 C 196.082031 201.328125 196.738281 200.980469 197.363281 200.566406 C 197.984375 200.152344 198.5625 199.679688 199.089844 199.152344 C 199.621094 198.621094 200.089844 198.046875 200.503906 197.421875 C 200.917969 196.800781 201.265625 196.140625 201.550781 195.449219 C 201.832031 194.757812 202.042969 194.042969 202.183594 193.308594 C 202.324219 192.574219 202.390625 191.832031 202.382812 191.082031 C 202.375 190.335938 202.296875 189.59375 202.140625 188.863281 C 201.984375 188.132812 201.757812 187.421875 201.460938 186.734375 C 201.164062 186.050781 200.804688 185.398438 200.375 184.785156 C 199.949219 184.167969 199.46875 183.601562 198.925781 183.085938 L 152.554688 136.714844 C 161.21875 124.832031 166.417969 110.269531 166.417969 94.507812 C 166.417969 54.890625 134.0625 22.535156 94.445312 22.535156 Z M 94.445312 45.023438 C 121.90625 45.023438 143.929688 67.046875 143.929688 94.507812 C 143.929688 121.96875 121.90625 143.988281 94.445312 143.988281 C 66.984375 143.988281 44.964844 121.96875 44.964844 94.507812 C 44.964844 67.046875 66.984375 45.023438 94.445312 45.023438 Z M 94.445312 45.023438 " fill-opacity="1" fill-rule="nonzero"/></g></svg>