<svg xmlns="http://www.w3.org/2000/svg" xmlns:xlink="http://www.w3.org/1999/xlink" width="300" zoomAndPan="magnify" viewBox="0 0 224.87999 225" height="300" preserveAspectRatio="xMidYMid meet" version="1.0"><defs><clipPath id="f43ef8d249"><path d="M 0 0.0585938 L 224.761719 0.0585938 L 224.761719 224.9375 L 0 224.9375 Z M 0 0.0585938 " clip-rule="nonzero"/></clipPath><clipPath id="d3d3410316"><path d="M 22.488281 48.296875 L 202.390625 48.296875 L 202.390625 176.476562 L 22.488281 176.476562 Z M 22.488281 48.296875 " clip-rule="nonzero"/></clipPath></defs><g clip-path="url(#f43ef8d249)"><path fill="none" d="M 0 0.0585938 L 224.878906 0.0585938 L 224.878906 224.941406 L 0 224.941406 Z M 0 0.0585938 " fill-opacity="1" fill-rule="nonzero"/><path fill="none" d="M 0 0.0585938 L 224.878906 0.0585938 L 224.878906 224.941406 L 0 224.941406 Z M 0 0.0585938 " fill-opacity="1" fill-rule="nonzero"/></g><g clip-path="url(#d3d3410316)"><path fill="#ffffff" d="M 23.609375 166.515625 L 47.496094 131.558594 C 47.566406 131.453125 47.675781 131.394531 47.804688 131.394531 L 177.074219 131.394531 C 177.203125 131.394531 177.3125 131.453125 177.382812 131.558594 L 201.269531 166.515625 C 204.167969 170.757812 201.136719 176.488281 195.992188 176.488281 L 28.886719 176.488281 C 23.738281 176.484375 20.707031 170.757812 23.609375 166.515625 Z M 57.234375 48.332031 L 167.644531 48.332031 C 171.886719 48.332031 175.355469 51.796875 175.355469 56.03125 L 175.355469 125.40625 C 175.355469 125.613281 175.1875 125.78125 174.980469 125.78125 L 49.898438 125.78125 C 49.695312 125.78125 49.523438 125.613281 49.523438 125.40625 L 49.523438 56.03125 C 49.523438 51.796875 52.996094 48.332031 57.234375 48.332031 Z M 69.328125 54.773438 C 64.09375 54.773438 59.828125 59.03125 59.828125 64.253906 L 59.828125 109.859375 C 59.828125 115.085938 64.09375 119.339844 69.328125 119.339844 L 155.550781 119.339844 C 160.785156 119.339844 165.050781 115.085938 165.050781 109.859375 L 165.050781 64.253906 C 165.050781 59.03125 160.785156 54.773438 155.550781 54.773438 Z M 130.066406 168.140625 L 127.882812 159.175781 C 127.839844 159.003906 127.691406 158.890625 127.515625 158.890625 L 97.363281 158.890625 C 97.1875 158.890625 97.039062 159.003906 97 159.175781 L 94.8125 168.140625 C 94.785156 168.253906 94.808594 168.367188 94.882812 168.460938 C 94.957031 168.554688 95.058594 168.601562 95.175781 168.601562 L 129.703125 168.601562 C 129.824219 168.601562 129.925781 168.554688 130 168.460938 C 130.070312 168.367188 130.09375 168.253906 130.066406 168.140625 Z M 178.945312 150.421875 L 170.523438 138.09375 C 170.449219 137.988281 170.339844 137.929688 170.210938 137.929688 L 54.667969 137.929688 C 54.539062 137.929688 54.429688 137.988281 54.359375 138.09375 L 45.933594 150.421875 C 45.851562 150.539062 45.84375 150.679688 45.910156 150.804688 C 45.980469 150.933594 46.101562 151.003906 46.242188 151.003906 L 178.636719 151.003906 C 178.78125 151.003906 178.902344 150.933594 178.96875 150.804688 C 179.035156 150.679688 179.027344 150.539062 178.945312 150.421875 Z M 178.945312 150.421875 " fill-opacity="1" fill-rule="evenodd"/></g></svg>