<svg xmlns="http://www.w3.org/2000/svg" xmlns:xlink="http://www.w3.org/1999/xlink" width="300" zoomAndPan="magnify" viewBox="0 0 224.87999 225" height="300" preserveAspectRatio="xMidYMid meet" version="1.0"><defs><clipPath id="9585b9e347"><path d="M 0 0.0585938 L 224.761719 0.0585938 L 224.761719 224.9375 L 0 224.9375 Z M 0 0.0585938 " clip-rule="nonzero"/></clipPath><clipPath id="97bb059a49"><path d="M 22.488281 33.34375 L 202.390625 33.34375 L 202.390625 191 L 22.488281 191 Z M 22.488281 33.34375 " clip-rule="nonzero"/></clipPath></defs><g clip-path="url(#9585b9e347)"><path fill="none" d="M 0 0.0585938 L 224.878906 0.0585938 L 224.878906 224.941406 L 0 224.941406 Z M 0 0.0585938 " fill-opacity="1" fill-rule="nonzero"/><path fill="none" d="M 0 0.0585938 L 224.878906 0.0585938 L 224.878906 224.941406 L 0 224.941406 Z M 0 0.0585938 " fill-opacity="1" fill-rule="nonzero"/></g><g clip-path="url(#97bb059a49)"><path fill="#ffffff" d="M 188.773438 69.316406 L 183.160156 69.316406 L 183.160156 56.488281 C 183.160156 55.808594 183.09375 55.136719 182.960938 54.472656 C 182.832031 53.804688 182.632812 53.160156 182.375 52.535156 C 182.117188 51.90625 181.796875 51.3125 181.421875 50.746094 C 181.042969 50.183594 180.617188 49.660156 180.136719 49.179688 C 179.65625 48.699219 179.136719 48.269531 178.574219 47.890625 C 178.007812 47.515625 177.414062 47.195312 176.785156 46.933594 C 176.160156 46.671875 175.515625 46.476562 174.847656 46.339844 C 174.183594 46.207031 173.511719 46.136719 172.832031 46.136719 L 156.546875 46.136719 L 156.546875 36.839844 C 156.546875 36.429688 156.46875 36.035156 156.3125 35.652344 C 156.152344 35.273438 155.929688 34.9375 155.640625 34.648438 C 155.347656 34.359375 155.011719 34.132812 154.632812 33.976562 C 154.253906 33.820312 153.855469 33.742188 153.445312 33.742188 L 71.308594 33.742188 C 70.898438 33.742188 70.503906 33.820312 70.125 33.976562 C 69.742188 34.132812 69.40625 34.359375 69.117188 34.648438 C 68.824219 34.9375 68.601562 35.273438 68.445312 35.652344 C 68.289062 36.035156 68.207031 36.429688 68.207031 36.839844 L 68.207031 46.136719 L 52.078125 46.136719 C 51.398438 46.136719 50.726562 46.207031 50.058594 46.339844 C 49.394531 46.472656 48.746094 46.671875 48.121094 46.933594 C 47.492188 47.195312 46.894531 47.511719 46.332031 47.890625 C 45.765625 48.269531 45.242188 48.695312 44.761719 49.175781 C 44.28125 49.65625 43.851562 50.179688 43.472656 50.742188 C 43.097656 51.308594 42.777344 51.902344 42.515625 52.53125 C 42.253906 53.15625 42.058594 53.804688 41.921875 54.46875 C 41.789062 55.136719 41.722656 55.808594 41.71875 56.488281 L 41.71875 69.347656 L 36.042969 69.347656 C 35.152344 69.351562 34.269531 69.441406 33.398438 69.621094 C 32.527344 69.796875 31.679688 70.054688 30.859375 70.398438 C 30.035156 70.742188 29.257812 71.160156 28.515625 71.65625 C 27.777344 72.152344 27.09375 72.714844 26.464844 73.34375 C 25.835938 73.972656 25.273438 74.660156 24.78125 75.398438 C 24.285156 76.136719 23.867188 76.917969 23.527344 77.738281 C 23.1875 78.5625 22.929688 79.40625 22.753906 80.28125 C 22.578125 81.152344 22.488281 82.03125 22.488281 82.921875 L 22.488281 142.609375 C 22.488281 143.5 22.574219 144.382812 22.75 145.257812 C 22.921875 146.128906 23.179688 146.976562 23.519531 147.800781 C 23.859375 148.625 24.277344 149.40625 24.769531 150.148438 C 25.265625 150.890625 25.824219 151.578125 26.453125 152.207031 C 27.082031 152.839844 27.769531 153.402344 28.507812 153.898438 C 29.246094 154.398438 30.027344 154.816406 30.851562 155.160156 C 31.671875 155.503906 32.519531 155.765625 33.394531 155.941406 C 34.269531 156.121094 35.152344 156.210938 36.042969 156.214844 L 42.246094 156.214844 L 31.949219 186.648438 C 31.871094 186.878906 31.820312 187.121094 31.796875 187.367188 C 31.777344 187.609375 31.78125 187.855469 31.820312 188.097656 C 31.855469 188.34375 31.921875 188.578125 32.015625 188.808594 C 32.105469 189.035156 32.226562 189.25 32.371094 189.449219 C 32.511719 189.648438 32.679688 189.828125 32.867188 189.988281 C 33.054688 190.148438 33.257812 190.285156 33.476562 190.398438 C 33.695312 190.511719 33.925781 190.59375 34.164062 190.652344 C 34.40625 190.710938 34.648438 190.738281 34.894531 190.738281 L 189.984375 190.738281 C 190.238281 190.75 190.488281 190.734375 190.738281 190.6875 C 190.988281 190.636719 191.226562 190.558594 191.457031 190.453125 C 191.683594 190.347656 191.898438 190.214844 192.097656 190.054688 C 192.292969 189.898438 192.46875 189.714844 192.621094 189.515625 C 192.773438 189.3125 192.902344 189.09375 193 188.863281 C 193.101562 188.628906 193.171875 188.386719 193.210938 188.136719 C 193.25 187.886719 193.261719 187.636719 193.242188 187.386719 C 193.21875 187.132812 193.167969 186.886719 193.085938 186.648438 L 182.945312 156.089844 L 188.929688 156.089844 C 189.8125 156.078125 190.683594 155.980469 191.546875 155.800781 C 192.410156 155.621094 193.25 155.359375 194.058594 155.015625 C 194.871094 154.671875 195.644531 154.253906 196.375 153.761719 C 197.105469 153.269531 197.785156 152.710938 198.40625 152.085938 C 199.03125 151.464844 199.585938 150.785156 200.078125 150.054688 C 200.570312 149.320312 200.984375 148.550781 201.328125 147.738281 C 201.667969 146.925781 201.929688 146.089844 202.109375 145.226562 C 202.289062 144.363281 202.382812 143.492188 202.390625 142.609375 L 202.390625 82.921875 C 202.390625 82.03125 202.300781 81.144531 202.125 80.269531 C 201.949219 79.394531 201.691406 78.546875 201.347656 77.71875 C 201.003906 76.894531 200.585938 76.113281 200.085938 75.371094 C 199.589844 74.628906 199.027344 73.941406 198.394531 73.3125 C 197.761719 72.679688 197.074219 72.117188 196.332031 71.621094 C 195.589844 71.125 194.804688 70.703125 193.980469 70.359375 C 193.15625 70.019531 192.304688 69.757812 191.429688 69.582031 C 190.554688 69.410156 189.667969 69.320312 188.773438 69.316406 Z M 138.898438 85.679688 C 138.898438 86.089844 138.820312 86.488281 138.664062 86.867188 C 138.503906 87.246094 138.28125 87.582031 137.988281 87.871094 C 137.699219 88.164062 137.363281 88.386719 136.984375 88.542969 C 136.601562 88.699219 136.207031 88.78125 135.796875 88.78125 L 128.753906 88.78125 C 128.527344 88.84375 128.292969 88.878906 128.054688 88.886719 C 127.816406 88.894531 127.578125 88.875 127.34375 88.828125 C 127.109375 88.785156 126.886719 88.710938 126.667969 88.613281 C 126.449219 88.515625 126.246094 88.394531 126.058594 88.25 C 125.867188 88.105469 125.699219 87.941406 125.546875 87.757812 C 125.394531 87.574219 125.265625 87.375 125.160156 87.160156 C 125.054688 86.949219 124.976562 86.726562 124.921875 86.492188 C 124.867188 86.261719 124.839844 86.027344 124.839844 85.789062 C 124.839844 85.550781 124.867188 85.316406 124.921875 85.082031 C 124.976562 84.851562 125.054688 84.628906 125.160156 84.414062 C 125.265625 84.203125 125.394531 84.003906 125.546875 83.820312 C 125.699219 83.636719 125.867188 83.472656 126.058594 83.328125 C 126.246094 83.183594 126.449219 83.0625 126.667969 82.964844 C 126.886719 82.867188 127.109375 82.792969 127.34375 82.746094 C 127.578125 82.703125 127.816406 82.683594 128.054688 82.691406 C 128.292969 82.699219 128.527344 82.734375 128.753906 82.796875 L 135.921875 82.796875 C 136.304688 82.8125 136.671875 82.894531 137.023438 83.046875 C 137.375 83.195312 137.6875 83.402344 137.960938 83.667969 C 138.238281 83.933594 138.457031 84.242188 138.617188 84.589844 C 138.777344 84.933594 138.871094 85.300781 138.898438 85.679688 Z M 40.167969 85.679688 C 40.167969 85.269531 40.246094 84.875 40.40625 84.496094 C 40.5625 84.113281 40.785156 83.78125 41.078125 83.488281 C 41.367188 83.199219 41.703125 82.972656 42.082031 82.816406 C 42.464844 82.660156 42.859375 82.582031 43.269531 82.582031 L 112.441406 82.582031 C 112.671875 82.519531 112.902344 82.484375 113.140625 82.476562 C 113.378906 82.464844 113.617188 82.484375 113.851562 82.53125 C 114.085938 82.578125 114.308594 82.648438 114.527344 82.746094 C 114.746094 82.84375 114.949219 82.964844 115.136719 83.109375 C 115.328125 83.253906 115.496094 83.417969 115.648438 83.601562 C 115.800781 83.785156 115.929688 83.984375 116.035156 84.199219 C 116.140625 84.414062 116.21875 84.636719 116.273438 84.867188 C 116.328125 85.097656 116.355469 85.332031 116.355469 85.570312 C 116.355469 85.808594 116.328125 86.046875 116.273438 86.277344 C 116.21875 86.507812 116.140625 86.730469 116.035156 86.945312 C 115.929688 87.160156 115.800781 87.355469 115.648438 87.542969 C 115.496094 87.726562 115.328125 87.890625 115.136719 88.035156 C 114.949219 88.179688 114.746094 88.300781 114.527344 88.398438 C 114.308594 88.496094 114.085938 88.566406 113.851562 88.613281 C 113.617188 88.660156 113.378906 88.675781 113.140625 88.667969 C 112.902344 88.660156 112.671875 88.625 112.441406 88.5625 L 43.175781 88.75 C 42.785156 88.738281 42.40625 88.652344 42.046875 88.5 C 41.683594 88.34375 41.363281 88.128906 41.085938 87.851562 C 40.804688 87.578125 40.585938 87.257812 40.429688 86.902344 C 40.269531 86.542969 40.183594 86.164062 40.167969 85.773438 Z M 74.289062 39.722656 L 150.53125 39.722656 L 150.53125 69.222656 L 74.320312 69.222656 L 74.320312 39.816406 Z M 185.953125 184.632812 L 38.957031 184.632812 L 49.039062 154.324219 L 59.710938 122.464844 L 65.480469 105.140625 L 62.378906 105.140625 C 61.097656 105.140625 59.898438 105.449219 58.777344 106.070312 C 58.167969 106.394531 57.613281 106.789062 57.113281 107.265625 C 56.613281 107.738281 56.1875 108.269531 55.832031 108.859375 C 55.476562 109.449219 55.207031 110.074219 55.023438 110.738281 C 54.835938 111.402344 54.746094 112.078125 54.746094 112.765625 C 54.757812 113.855469 55.003906 114.890625 55.492188 115.863281 L 53.226562 122.621094 C 51.800781 121.355469 50.695312 119.851562 49.917969 118.113281 C 49.136719 116.371094 48.753906 114.546875 48.761719 112.640625 C 48.761719 111.746094 48.847656 110.863281 49.023438 109.984375 C 49.195312 109.109375 49.453125 108.257812 49.796875 107.429688 C 50.136719 106.605469 50.558594 105.820312 51.054688 105.074219 C 51.550781 104.332031 52.113281 103.644531 52.746094 103.011719 C 53.378906 102.378906 54.066406 101.8125 54.808594 101.316406 C 55.554688 100.816406 56.335938 100.398438 57.164062 100.054688 C 57.988281 99.710938 58.839844 99.449219 59.71875 99.273438 C 60.597656 99.097656 61.480469 99.007812 62.378906 99.007812 L 162.566406 99.007812 C 163.246094 99.007812 163.921875 99.058594 164.597656 99.164062 C 165.269531 99.265625 165.929688 99.417969 166.582031 99.621094 C 167.230469 99.824219 167.863281 100.070312 168.476562 100.371094 C 169.089844 100.667969 169.675781 101.007812 170.238281 101.394531 C 170.796875 101.777344 171.328125 102.203125 171.824219 102.667969 C 172.324219 103.132812 172.78125 103.632812 173.203125 104.167969 C 173.625 104.703125 174.007812 105.265625 174.34375 105.855469 C 174.679688 106.445312 174.972656 107.058594 175.21875 107.695312 C 175.460938 108.328125 175.660156 108.976562 175.804688 109.644531 C 175.953125 110.308594 176.050781 110.980469 176.097656 111.65625 C 176.144531 112.335938 176.136719 113.015625 176.082031 113.691406 C 176.027344 114.371094 175.921875 115.042969 175.761719 115.703125 C 175.605469 116.367188 175.402344 117.011719 175.148438 117.644531 C 174.894531 118.277344 174.59375 118.882812 174.246094 119.46875 C 173.902344 120.058594 173.515625 120.613281 173.085938 121.140625 C 172.65625 121.671875 172.1875 122.164062 171.683594 122.621094 L 169.417969 115.773438 C 169.890625 114.792969 170.128906 113.757812 170.132812 112.671875 C 170.128906 111.996094 170.03125 111.332031 169.847656 110.679688 C 169.664062 110.027344 169.398438 109.414062 169.046875 108.832031 C 168.699219 108.25 168.28125 107.726562 167.789062 107.257812 C 167.300781 106.792969 166.757812 106.394531 166.164062 106.070312 C 165.042969 105.453125 163.84375 105.144531 162.566406 105.140625 L 159.464844 105.140625 L 165.171875 122.496094 L 175.59375 153.828125 L 175.777344 154.386719 Z M 185.953125 184.632812 " fill-opacity="1" fill-rule="nonzero"/></g></svg>