<svg xmlns="http://www.w3.org/2000/svg" xmlns:xlink="http://www.w3.org/1999/xlink" width="300" zoomAndPan="magnify" viewBox="0 0 224.87999 225" height="300" preserveAspectRatio="xMidYMid meet" version="1.0"><defs><clipPath id="e6de2d94ff"><path d="M 0 0.0585938 L 224.761719 0.0585938 L 224.761719 224.9375 L 0 224.9375 Z M 0 0.0585938 " clip-rule="nonzero"/></clipPath><clipPath id="207b4039d2"><path d="M 22.488281 66.175781 L 95 66.175781 L 95 136 L 22.488281 136 Z M 22.488281 66.175781 " clip-rule="nonzero"/></clipPath><clipPath id="e989fda4e3"><path d="M 130 66.175781 L 202.390625 66.175781 L 202.390625 136 L 130 136 Z M 130 66.175781 " clip-rule="nonzero"/></clipPath></defs><g clip-path="url(#e6de2d94ff)"><path fill="none" d="M 0 0.0585938 L 224.878906 0.0585938 L 224.878906 224.941406 L 0 224.941406 Z M 0 0.0585938 " fill-opacity="1" fill-rule="nonzero"/><path fill="none" d="M 0 0.0585938 L 224.878906 0.0585938 L 224.878906 224.941406 L 0 224.941406 Z M 0 0.0585938 " fill-opacity="1" fill-rule="nonzero"/></g><path fill="#000000" d="M 155.378906 108.308594 L 125.707031 103.980469 L 112.441406 77.007812 L 99.171875 103.980469 L 69.496094 108.308594 L 90.96875 129.3125 L 85.902344 158.957031 L 112.441406 144.960938 L 138.976562 158.957031 L 133.914062 129.3125 Z M 155.378906 108.308594 " fill-opacity="1" fill-rule="nonzero"/><g clip-path="url(#207b4039d2)"><path fill="#000000" d="M 58.894531 104.847656 L 85.996094 100.898438 L 94.542969 92.539062 L 69.652344 88.914062 L 58.519531 66.277344 L 47.382812 88.914062 L 22.488281 92.539062 L 40.5 110.160156 L 36.25 135.035156 L 58.519531 123.289062 L 80.777344 135.035156 L 78.976562 124.492188 Z M 58.894531 104.847656 " fill-opacity="1" fill-rule="nonzero"/></g><g clip-path="url(#e989fda4e3)"><path fill="#000000" d="M 202.390625 92.539062 L 177.5 88.914062 L 166.363281 66.277344 L 155.230469 88.914062 L 130.335938 92.539062 L 138.882812 100.898438 L 165.984375 104.847656 L 145.90625 124.492188 L 144.101562 135.035156 L 166.363281 123.289062 L 188.636719 135.035156 L 184.378906 110.160156 Z M 202.390625 92.539062 " fill-opacity="1" fill-rule="nonzero"/></g></svg>