<svg xmlns="http://www.w3.org/2000/svg" xmlns:xlink="http://www.w3.org/1999/xlink" width="300" zoomAndPan="magnify" viewBox="0 0 224.87999 225" height="300" preserveAspectRatio="xMidYMid meet" version="1.0"><defs><clipPath id="434c9bff86"><path d="M 0 0.0585938 L 224.761719 0.0585938 L 224.761719 224.9375 L 0 224.9375 Z M 0 0.0585938 " clip-rule="nonzero"/></clipPath><clipPath id="cffbd972ca"><path d="M 70 75 L 200.855469 75 L 200.855469 178 L 70 178 Z M 70 75 " clip-rule="nonzero"/></clipPath><clipPath id="e6aecc2808"><path d="M 24 22.546875 L 165 22.546875 L 165 118 L 24 118 Z M 24 22.546875 " clip-rule="nonzero"/></clipPath><clipPath id="797201514c"><path d="M 23.949219 123 L 89 123 L 89 202.453125 L 23.949219 202.453125 Z M 23.949219 123 " clip-rule="nonzero"/></clipPath></defs><g clip-path="url(#434c9bff86)"><path fill="none" d="M 0 0.0585938 L 224.878906 0.0585938 L 224.878906 224.941406 L 0 224.941406 Z M 0 0.0585938 " fill-opacity="1" fill-rule="nonzero"/><path fill="none" d="M 0 0.0585938 L 224.878906 0.0585938 L 224.878906 224.941406 L 0 224.941406 Z M 0 0.0585938 " fill-opacity="1" fill-rule="nonzero"/></g><g clip-path="url(#cffbd972ca)"><path fill="#000000" d="M 194.332031 88.089844 L 82.3125 75.492188 C 78.265625 75.035156 74.675781 77.96875 74.167969 81.96875 L 70.375 115.308594 L 70.832031 115.15625 C 76.242188 113.285156 82.210938 115.359375 85.347656 120.265625 C 85.902344 121.226562 86.863281 121.886719 87.875 122.136719 C 89.644531 122.542969 91.261719 123.351562 92.578125 124.363281 L 114.375 126.84375 C 116.195312 127.046875 117.5625 128.714844 117.308594 130.535156 L 117.15625 131.699219 C 116.953125 133.523438 115.285156 134.886719 113.464844 134.632812 L 97.332031 132.8125 C 97.382812 133.269531 97.433594 133.722656 97.433594 134.179688 L 97.433594 141.160156 L 126.511719 144.449219 C 128.382812 144.652344 129.699219 146.320312 129.445312 148.144531 L 129.34375 149.355469 C 129.089844 151.179688 127.472656 152.542969 125.652344 152.292969 L 97.433594 149.105469 L 97.433594 167.417969 L 184.265625 177.285156 C 188.3125 177.742188 191.902344 174.804688 192.410156 170.808594 L 200.804688 96.234375 C 201.261719 92.1875 198.328125 88.542969 194.332031 88.089844 Z M 179.511719 146.320312 C 179.007812 150.773438 174.960938 153.960938 170.511719 153.507812 C 168.285156 153.253906 166.414062 152.140625 165.101562 150.570312 C 163.480469 151.835938 161.40625 152.492188 159.132812 152.242188 C 154.683594 151.734375 151.496094 147.738281 151.949219 143.234375 C 152.457031 138.785156 156.453125 135.546875 160.953125 136.050781 C 163.179688 136.304688 165.050781 137.417969 166.363281 138.984375 C 167.984375 137.722656 170.054688 137.0625 172.28125 137.316406 C 176.78125 137.820312 180.019531 141.820312 179.511719 146.320312 Z M 190.742188 120.0625 C 190.640625 121.074219 189.730469 121.785156 188.71875 121.683594 L 80.339844 109.488281 C 79.328125 109.386719 78.621094 108.425781 78.71875 107.464844 L 79.679688 98.964844 C 79.78125 97.953125 80.691406 97.246094 81.703125 97.347656 L 190.082031 109.539062 C 191.09375 109.640625 191.800781 110.550781 191.703125 111.5625 Z M 190.742188 120.0625 " fill-opacity="1" fill-rule="nonzero"/></g><g clip-path="url(#e6aecc2808)"><path fill="#000000" d="M 164.339844 75.945312 L 153.113281 74.679688 L 144.164062 60.363281 C 143.304688 58.945312 141.480469 58.542969 140.117188 59.453125 L 121.503906 71.140625 L 94.042969 68.054688 L 131.011719 44.882812 C 132.378906 44.023438 132.835938 42.199219 131.925781 40.835938 L 127.980469 34.5625 C 127.121094 33.144531 125.296875 32.738281 123.933594 33.648438 L 35.886719 88.695312 C 34.46875 89.554688 34.0625 91.378906 34.976562 92.742188 L 38.917969 99.066406 C 39.777344 100.484375 41.601562 100.890625 42.964844 99.976562 L 64.964844 86.214844 L 62.488281 108.074219 L 52.070312 114.601562 C 50.90625 115.308594 50.449219 116.675781 50.804688 117.886719 C 49.539062 117.6875 48.324219 117.332031 47.113281 116.925781 L 42.054688 115.15625 C 40.789062 114.699219 39.425781 114.5 38.109375 114.449219 L 25.113281 93.652344 C 22.988281 90.214844 24 85.660156 27.4375 83.535156 L 122.972656 23.683594 C 126.410156 21.558594 130.964844 22.570312 133.136719 26.011719 Z M 164.339844 75.945312 " fill-opacity="1" fill-rule="nonzero"/></g><g clip-path="url(#797201514c)"><path fill="#000000" d="M 85.953125 130.636719 C 82.613281 129.878906 79.78125 127.804688 78.011719 124.972656 C 77.101562 123.503906 75.28125 122.847656 73.664062 123.402344 L 68.910156 125.023438 C 60.664062 127.855469 52.117188 127.855469 44.28125 125.171875 L 39.171875 123.402344 C 37.503906 122.847656 35.734375 123.503906 34.773438 124.972656 C 33.003906 127.804688 30.171875 129.878906 26.832031 130.636719 C 25.164062 131.042969 23.949219 132.507812 23.949219 134.230469 L 23.949219 167.015625 C 23.949219 175.210938 27.84375 183.003906 34.417969 187.910156 L 51.917969 200.960938 C 54.546875 202.9375 58.1875 202.9375 60.816406 200.960938 L 78.316406 187.910156 C 84.890625 183.003906 88.785156 175.261719 88.785156 167.015625 L 88.785156 134.230469 C 88.886719 132.507812 87.671875 131.042969 85.953125 130.636719 Z M 71.386719 159.273438 L 56.773438 173.945312 C 55.761719 174.957031 54.445312 175.515625 52.980469 175.515625 C 51.5625 175.515625 50.199219 174.957031 49.1875 173.945312 L 41.449219 166.203125 C 40.4375 165.191406 39.878906 163.828125 39.878906 162.410156 C 39.878906 160.992188 40.4375 159.628906 41.449219 158.617188 C 42.511719 157.554688 43.875 157.046875 45.242188 157.046875 C 46.605469 157.046875 47.972656 157.554688 49.035156 158.617188 L 52.980469 162.5625 L 63.851562 151.683594 C 65.925781 149.609375 69.3125 149.609375 71.386719 151.683594 C 73.460938 153.808594 73.460938 157.199219 71.386719 159.273438 Z M 71.386719 159.273438 " fill-opacity="1" fill-rule="nonzero"/></g></svg>