<svg xmlns="http://www.w3.org/2000/svg" xmlns:xlink="http://www.w3.org/1999/xlink" width="300" zoomAndPan="magnify" viewBox="0 0 224.87999 225" height="300" preserveAspectRatio="xMidYMid meet" version="1.0"><defs><clipPath id="5bf3a71162"><path d="M 0 0.0585938 L 224.761719 0.0585938 L 224.761719 224.9375 L 0 224.9375 Z M 0 0.0585938 " clip-rule="nonzero"/></clipPath><clipPath id="d6e10efbf4"><path d="M 22.488281 52.570312 L 202.390625 52.570312 L 202.390625 172.503906 L 22.488281 172.503906 Z M 22.488281 52.570312 " clip-rule="nonzero"/></clipPath></defs><g clip-path="url(#5bf3a71162)"><path fill="none" d="M 0 0.0585938 L 224.878906 0.0585938 L 224.878906 224.941406 L 0 224.941406 Z M 0 0.0585938 " fill-opacity="1" fill-rule="nonzero"/><path fill="none" d="M 0 0.0585938 L 224.878906 0.0585938 L 224.878906 224.941406 L 0 224.941406 Z M 0 0.0585938 " fill-opacity="1" fill-rule="nonzero"/></g><g clip-path="url(#d6e10efbf4)"><path fill="#000000" d="M 188.929688 82.964844 L 163.882812 82.964844 C 163.632812 82.972656 163.398438 82.925781 163.167969 82.824219 C 162.941406 82.726562 162.75 82.582031 162.585938 82.394531 C 162.421875 82.210938 162.308594 81.996094 162.242188 81.757812 C 162.175781 81.519531 162.160156 81.277344 162.203125 81.035156 L 165.65625 54.5 C 165.695312 54.257812 165.683594 54.015625 165.617188 53.777344 C 165.550781 53.539062 165.4375 53.328125 165.277344 53.140625 C 165.113281 52.957031 164.921875 52.8125 164.695312 52.710938 C 164.472656 52.613281 164.234375 52.5625 163.988281 52.570312 L 52.871094 52.570312 C 52.425781 52.582031 51.984375 52.632812 51.542969 52.722656 C 51.105469 52.808594 50.679688 52.9375 50.261719 53.101562 C 49.847656 53.265625 49.449219 53.464844 49.066406 53.699219 C 48.6875 53.929688 48.328125 54.195312 47.992188 54.492188 C 47.65625 54.789062 47.351562 55.113281 47.074219 55.460938 C 46.792969 55.8125 46.546875 56.183594 46.335938 56.578125 C 46.121094 56.96875 45.945312 57.378906 45.800781 57.800781 C 45.660156 58.226562 45.554688 58.660156 45.488281 59.101562 L 44.792969 64.433594 L 87.628906 64.433594 C 88.03125 64.425781 88.429688 64.457031 88.828125 64.535156 C 89.222656 64.613281 89.601562 64.730469 89.972656 64.894531 C 90.339844 65.054688 90.6875 65.257812 91.011719 65.496094 C 91.335938 65.734375 91.628906 66.003906 91.894531 66.308594 C 92.160156 66.609375 92.386719 66.9375 92.578125 67.292969 C 92.769531 67.648438 92.921875 68.019531 93.03125 68.40625 C 93.140625 68.792969 93.207031 69.1875 93.230469 69.589844 C 93.253906 69.992188 93.234375 70.390625 93.167969 70.789062 C 93.101562 71.21875 93 71.640625 92.859375 72.050781 C 92.722656 72.464844 92.546875 72.859375 92.339844 73.242188 C 92.132812 73.625 91.890625 73.984375 91.621094 74.328125 C 91.351562 74.667969 91.050781 74.980469 90.726562 75.269531 C 90.398438 75.558594 90.050781 75.8125 89.679688 76.042969 C 89.308594 76.269531 88.917969 76.460938 88.515625 76.621094 C 88.109375 76.78125 87.695312 76.90625 87.269531 76.992188 C 86.84375 77.078125 86.410156 77.128906 85.976562 77.140625 L 27.703125 77.140625 C 27.117188 77.144531 26.554688 77.25 26.007812 77.460938 C 25.460938 77.667969 24.96875 77.964844 24.53125 78.347656 C 24.089844 78.734375 23.730469 79.183594 23.453125 79.695312 C 23.171875 80.210938 22.992188 80.757812 22.910156 81.335938 L 22.910156 81.453125 C 22.867188 81.710938 22.855469 81.972656 22.871094 82.234375 C 22.886719 82.496094 22.929688 82.753906 23.003906 83.003906 C 23.074219 83.253906 23.171875 83.496094 23.296875 83.726562 C 23.421875 83.957031 23.570312 84.171875 23.738281 84.371094 C 23.910156 84.566406 24.101562 84.746094 24.3125 84.902344 C 24.523438 85.058594 24.746094 85.191406 24.984375 85.296875 C 25.222656 85.40625 25.472656 85.484375 25.726562 85.539062 C 25.984375 85.589844 26.242188 85.617188 26.503906 85.613281 L 84.910156 85.613281 C 85.3125 85.601562 85.710938 85.636719 86.105469 85.714844 C 86.5 85.789062 86.882812 85.910156 87.25 86.070312 C 87.617188 86.234375 87.964844 86.433594 88.289062 86.671875 C 88.613281 86.910156 88.90625 87.183594 89.171875 87.484375 C 89.433594 87.789062 89.664062 88.117188 89.855469 88.472656 C 90.046875 88.824219 90.195312 89.195312 90.304688 89.582031 C 90.414062 89.972656 90.480469 90.367188 90.5 90.765625 C 90.523438 91.167969 90.5 91.570312 90.433594 91.964844 C 90.371094 92.394531 90.269531 92.816406 90.128906 93.230469 C 89.992188 93.644531 89.816406 94.039062 89.609375 94.421875 C 89.402344 94.804688 89.160156 95.167969 88.890625 95.507812 C 88.621094 95.847656 88.320312 96.160156 87.996094 96.449219 C 87.667969 96.738281 87.320312 96.996094 86.949219 97.222656 C 86.578125 97.449219 86.1875 97.644531 85.785156 97.800781 C 85.378906 97.960938 84.960938 98.085938 84.535156 98.171875 C 84.109375 98.257812 83.679688 98.304688 83.242188 98.316406 L 39.929688 98.316406 C 39.355469 98.332031 38.800781 98.445312 38.269531 98.65625 C 37.734375 98.867188 37.253906 99.164062 36.824219 99.542969 C 36.394531 99.925781 36.042969 100.367188 35.769531 100.871094 C 35.496094 101.375 35.316406 101.910156 35.230469 102.476562 L 35.230469 102.597656 C 35.1875 102.855469 35.175781 103.113281 35.191406 103.375 C 35.207031 103.636719 35.25 103.894531 35.324219 104.144531 C 35.394531 104.398438 35.492188 104.640625 35.617188 104.871094 C 35.742188 105.097656 35.890625 105.3125 36.0625 105.511719 C 36.230469 105.710938 36.421875 105.886719 36.632812 106.042969 C 36.84375 106.199219 37.066406 106.332031 37.304688 106.4375 C 37.542969 106.546875 37.792969 106.628906 38.046875 106.679688 C 38.304688 106.734375 38.5625 106.757812 38.824219 106.753906 L 82.152344 106.753906 C 82.550781 106.75 82.945312 106.785156 83.335938 106.863281 C 83.726562 106.945312 84.105469 107.066406 84.46875 107.226562 C 84.832031 107.390625 85.171875 107.589844 85.492188 107.828125 C 85.8125 108.066406 86.105469 108.335938 86.367188 108.636719 C 86.625 108.9375 86.851562 109.261719 87.042969 109.613281 C 87.230469 109.964844 87.382812 110.328125 87.488281 110.714844 C 87.597656 111.097656 87.664062 111.488281 87.691406 111.886719 C 87.714844 112.28125 87.691406 112.679688 87.628906 113.070312 C 87.566406 113.503906 87.464844 113.925781 87.328125 114.335938 C 87.1875 114.75 87.015625 115.148438 86.808594 115.53125 C 86.597656 115.914062 86.359375 116.273438 86.089844 116.617188 C 85.816406 116.957031 85.519531 117.269531 85.191406 117.558594 C 84.867188 117.847656 84.515625 118.105469 84.144531 118.332031 C 83.773438 118.558594 83.386719 118.753906 82.980469 118.910156 C 82.574219 119.070312 82.160156 119.191406 81.730469 119.277344 C 81.304688 119.363281 80.875 119.414062 80.4375 119.425781 L 34.164062 119.425781 C 33.589844 119.441406 33.035156 119.554688 32.503906 119.765625 C 31.96875 119.976562 31.488281 120.269531 31.058594 120.652344 C 30.628906 121.03125 30.277344 121.472656 30.003906 121.976562 C 29.730469 122.480469 29.550781 123.015625 29.464844 123.582031 C 29.425781 123.839844 29.410156 124.101562 29.425781 124.363281 C 29.441406 124.625 29.488281 124.878906 29.558594 125.132812 C 29.628906 125.382812 29.726562 125.625 29.851562 125.855469 C 29.976562 126.085938 30.125 126.300781 30.296875 126.5 C 30.46875 126.695312 30.65625 126.875 30.867188 127.03125 C 31.078125 127.1875 31.300781 127.316406 31.539062 127.425781 C 31.78125 127.53125 32.027344 127.613281 32.285156 127.667969 C 32.539062 127.71875 32.800781 127.746094 33.0625 127.742188 L 36.523438 127.742188 L 34.449219 143.886719 C 34.382812 144.292969 34.359375 144.703125 34.382812 145.117188 C 34.40625 145.53125 34.472656 145.9375 34.585938 146.335938 C 34.699219 146.734375 34.851562 147.113281 35.046875 147.476562 C 35.246094 147.84375 35.480469 148.179688 35.75 148.492188 C 36.023438 148.804688 36.324219 149.082031 36.65625 149.328125 C 36.992188 149.574219 37.347656 149.78125 37.726562 149.945312 C 38.105469 150.113281 38.496094 150.234375 38.902344 150.316406 C 39.308594 150.394531 39.71875 150.429688 40.132812 150.417969 L 48.941406 150.417969 C 47.347656 162.570312 55.929688 172.421875 68.082031 172.421875 C 80.234375 172.421875 91.371094 162.570312 92.964844 150.417969 L 138.964844 150.417969 C 137.382812 162.570312 145.964844 172.421875 158.140625 172.421875 C 170.316406 172.421875 181.429688 162.570312 183.011719 150.417969 L 195.257812 150.417969 C 195.527344 150.410156 195.789062 150.355469 196.035156 150.257812 C 196.285156 150.15625 196.511719 150.015625 196.710938 149.835938 C 196.910156 149.65625 197.074219 149.449219 197.199219 149.210938 C 197.324219 148.972656 197.40625 148.71875 197.441406 148.453125 L 202.066406 112.988281 Z M 84.09375 150.851562 C 83.9375 151.703125 83.714844 152.539062 83.417969 153.355469 C 83.125 154.171875 82.761719 154.957031 82.335938 155.714844 C 81.910156 156.46875 81.425781 157.183594 80.878906 157.859375 C 80.332031 158.535156 79.734375 159.160156 79.082031 159.734375 C 78.433594 160.308594 77.738281 160.824219 77.003906 161.285156 C 76.265625 161.742188 75.496094 162.136719 74.695312 162.46875 C 73.890625 162.796875 73.066406 163.058594 72.222656 163.25 C 71.375 163.445312 70.519531 163.566406 69.652344 163.613281 C 69.21875 163.640625 68.78125 163.640625 68.347656 163.617188 C 67.914062 163.597656 67.480469 163.546875 67.050781 163.476562 C 66.621094 163.402344 66.199219 163.304688 65.78125 163.183594 C 65.363281 163.0625 64.953125 162.917969 64.550781 162.75 C 64.148438 162.582031 63.757812 162.390625 63.378906 162.175781 C 63 161.964844 62.632812 161.730469 62.28125 161.476562 C 61.929688 161.21875 61.589844 160.945312 61.269531 160.652344 C 60.949219 160.359375 60.644531 160.046875 60.359375 159.71875 C 60.074219 159.390625 59.804688 159.046875 59.558594 158.6875 C 59.3125 158.328125 59.089844 157.957031 58.886719 157.570312 C 58.679688 157.1875 58.5 156.792969 58.339844 156.386719 C 58.183594 155.980469 58.046875 155.566406 57.9375 155.144531 C 57.824219 154.726562 57.738281 154.300781 57.675781 153.867188 C 57.613281 153.4375 57.578125 153.003906 57.566406 152.570312 C 57.550781 152.132812 57.5625 151.699219 57.601562 151.265625 C 57.636719 150.832031 57.699219 150.402344 57.785156 149.976562 C 57.941406 149.125 58.164062 148.289062 58.460938 147.476562 C 58.753906 146.664062 59.113281 145.878906 59.535156 145.125 C 59.960938 144.371094 60.445312 143.65625 60.988281 142.980469 C 61.53125 142.308594 62.125 141.683594 62.773438 141.109375 C 63.421875 140.535156 64.113281 140.019531 64.84375 139.558594 C 65.578125 139.097656 66.34375 138.703125 67.144531 138.371094 C 67.945312 138.039062 68.765625 137.777344 69.609375 137.582031 C 70.453125 137.386719 71.304688 137.261719 72.167969 137.210938 C 72.605469 137.179688 73.039062 137.175781 73.476562 137.199219 C 73.914062 137.21875 74.347656 137.265625 74.777344 137.335938 C 75.207031 137.40625 75.632812 137.503906 76.054688 137.625 C 76.472656 137.742188 76.886719 137.886719 77.289062 138.054688 C 77.691406 138.222656 78.085938 138.410156 78.46875 138.625 C 78.847656 138.835938 79.214844 139.070312 79.570312 139.324219 C 79.925781 139.578125 80.265625 139.855469 80.589844 140.148438 C 80.910156 140.441406 81.21875 140.753906 81.503906 141.082031 C 81.792969 141.410156 82.058594 141.753906 82.308594 142.113281 C 82.554688 142.472656 82.78125 142.84375 82.988281 143.230469 C 83.191406 143.617188 83.375 144.011719 83.535156 144.417969 C 83.695312 144.824219 83.828125 145.242188 83.941406 145.664062 C 84.054688 146.085938 84.140625 146.511719 84.203125 146.945312 C 84.265625 147.375 84.304688 147.8125 84.316406 148.246094 C 84.328125 148.683594 84.316406 149.121094 84.28125 149.554688 C 84.242188 149.988281 84.179688 150.421875 84.09375 150.851562 Z M 174.128906 150.851562 C 173.972656 151.703125 173.75 152.535156 173.457031 153.347656 C 173.164062 154.164062 172.804688 154.945312 172.378906 155.699219 C 171.953125 156.457031 171.472656 157.167969 170.925781 157.84375 C 170.382812 158.515625 169.789062 159.140625 169.140625 159.714844 C 168.496094 160.289062 167.804688 160.808594 167.070312 161.265625 C 166.335938 161.726562 165.570312 162.121094 164.769531 162.453125 C 163.972656 162.785156 163.152344 163.046875 162.308594 163.242188 C 161.464844 163.4375 160.609375 163.5625 159.746094 163.613281 C 159.3125 163.640625 158.878906 163.640625 158.441406 163.617188 C 158.007812 163.597656 157.574219 163.546875 157.144531 163.476562 C 156.71875 163.402344 156.292969 163.304688 155.875 163.183594 C 155.457031 163.0625 155.046875 162.917969 154.644531 162.75 C 154.242188 162.582031 153.851562 162.390625 153.472656 162.175781 C 153.09375 161.964844 152.726562 161.730469 152.375 161.476562 C 152.023438 161.21875 151.683594 160.945312 151.363281 160.652344 C 151.042969 160.359375 150.738281 160.046875 150.453125 159.71875 C 150.167969 159.390625 149.902344 159.046875 149.65625 158.6875 C 149.40625 158.328125 149.183594 157.957031 148.980469 157.570312 C 148.777344 157.1875 148.59375 156.792969 148.4375 156.386719 C 148.277344 155.980469 148.144531 155.566406 148.03125 155.144531 C 147.921875 154.726562 147.832031 154.300781 147.769531 153.867188 C 147.710938 153.4375 147.671875 153.003906 147.660156 152.570312 C 147.644531 152.132812 147.660156 151.699219 147.695312 151.265625 C 147.734375 150.832031 147.792969 150.402344 147.878906 149.976562 C 148.035156 149.125 148.261719 148.289062 148.554688 147.476562 C 148.847656 146.664062 149.207031 145.878906 149.628906 145.125 C 150.054688 144.371094 150.539062 143.65625 151.082031 142.980469 C 151.625 142.308594 152.21875 141.683594 152.867188 141.109375 C 153.515625 140.535156 154.207031 140.019531 154.9375 139.558594 C 155.671875 139.097656 156.4375 138.703125 157.238281 138.371094 C 158.039062 138.039062 158.859375 137.777344 159.703125 137.582031 C 160.546875 137.386719 161.398438 137.261719 162.261719 137.210938 C 162.699219 137.183594 163.132812 137.183594 163.566406 137.207031 C 164.003906 137.230469 164.433594 137.277344 164.863281 137.351562 C 165.292969 137.421875 165.714844 137.519531 166.132812 137.640625 C 166.550781 137.761719 166.960938 137.90625 167.363281 138.074219 C 167.765625 138.242188 168.15625 138.433594 168.535156 138.648438 C 168.914062 138.859375 169.28125 139.09375 169.632812 139.351562 C 169.988281 139.605469 170.324219 139.878906 170.644531 140.171875 C 170.96875 140.464844 171.269531 140.777344 171.558594 141.105469 C 171.84375 141.433594 172.109375 141.777344 172.355469 142.136719 C 172.601562 142.496094 172.828125 142.867188 173.03125 143.253906 C 173.234375 143.636719 173.414062 144.03125 173.574219 144.4375 C 173.730469 144.84375 173.867188 145.257812 173.976562 145.679688 C 174.089844 146.097656 174.175781 146.523438 174.238281 146.957031 C 174.300781 147.386719 174.339844 147.820312 174.351562 148.253906 C 174.363281 148.691406 174.351562 149.125 174.3125 149.558594 C 174.277344 149.992188 174.214844 150.421875 174.128906 150.851562 Z M 158.152344 113.023438 L 160.65625 93.847656 L 183.179688 93.847656 L 191.832031 113.109375 Z M 158.152344 113.023438 " fill-opacity="1" fill-rule="nonzero"/></g></svg>