<svg xmlns="http://www.w3.org/2000/svg" xmlns:xlink="http://www.w3.org/1999/xlink" width="300" zoomAndPan="magnify" viewBox="0 0 224.87999 225" height="300" preserveAspectRatio="xMidYMid meet" version="1.0"><defs><clipPath id="72c52a8519"><path d="M 0 0.0585938 L 224.761719 0.0585938 L 224.761719 224.9375 L 0 224.9375 Z M 0 0.0585938 " clip-rule="nonzero"/></clipPath><clipPath id="76fca1db9f"><path d="M 22.488281 22.546875 L 202.390625 22.546875 L 202.390625 202.453125 L 22.488281 202.453125 Z M 22.488281 22.546875 " clip-rule="nonzero"/></clipPath><clipPath id="5ba96a5a07"><path d="M 0.488281 0.546875 L 180.390625 0.546875 L 180.390625 180.453125 L 0.488281 180.453125 Z M 0.488281 0.546875 " clip-rule="nonzero"/></clipPath><clipPath id="f36402aa20"><rect x="0" width="181" y="0" height="181"/></clipPath></defs><g clip-path="url(#72c52a8519)"><path fill="none" d="M 0 0.0585938 L 224.878906 0.0585938 L 224.878906 224.941406 L 0 224.941406 Z M 0 0.0585938 " fill-opacity="1" fill-rule="nonzero"/><path fill="none" d="M 0 0.0585938 L 224.878906 0.0585938 L 224.878906 224.941406 L 0 224.941406 Z M 0 0.0585938 " fill-opacity="1" fill-rule="nonzero"/></g><g clip-path="url(#76fca1db9f)"><g transform="matrix(1, 0, 0, 1, 22, 22)"><g clip-path="url(#f36402aa20)"><g clip-path="url(#5ba96a5a07)"><path fill="#ff0000" d="M 90.441406 0.546875 C 139.972656 0.546875 180.390625 40.96875 180.390625 90.5 C 180.390625 140.03125 139.972656 180.453125 90.441406 180.453125 C 40.90625 180.453125 0.488281 140.03125 0.488281 90.5 C 0.488281 40.96875 40.90625 0.546875 90.441406 0.546875 Z M 64.683594 106.152344 L 97.96875 139.4375 L 113.621094 123.785156 L 80.535156 90.5 L 113.621094 57.410156 L 97.96875 41.757812 L 64.683594 74.847656 L 49.03125 90.5 Z M 64.683594 106.152344 " fill-opacity="1" fill-rule="nonzero"/></g></g></g></g></svg>