<svg xmlns="http://www.w3.org/2000/svg" xmlns:xlink="http://www.w3.org/1999/xlink" width="300" zoomAndPan="magnify" viewBox="0 0 224.87999 225" height="300" preserveAspectRatio="xMidYMid meet" version="1.0"><defs><clipPath id="45f9e065e5"><path d="M 0 0.0585938 L 224.761719 0.0585938 L 224.761719 224.9375 L 0 224.9375 Z M 0 0.0585938 " clip-rule="nonzero"/></clipPath><clipPath id="3c38847697"><path d="M 22.488281 22.546875 L 202.390625 22.546875 L 202.390625 202.453125 L 22.488281 202.453125 Z M 22.488281 22.546875 " clip-rule="nonzero"/></clipPath></defs><g clip-path="url(#45f9e065e5)"><path fill="none" d="M 0 0.0585938 L 224.878906 0.0585938 L 224.878906 224.941406 L 0 224.941406 Z M 0 0.0585938 " fill-opacity="1" fill-rule="nonzero"/><path fill="none" d="M 0 0.0585938 L 224.878906 0.0585938 L 224.878906 224.941406 L 0 224.941406 Z M 0 0.0585938 " fill-opacity="1" fill-rule="nonzero"/></g><g clip-path="url(#3c38847697)"><path fill="#ff0000" d="M 112.441406 22.546875 C 62.90625 22.546875 22.488281 62.96875 22.488281 112.5 C 22.488281 162.03125 62.90625 202.453125 112.441406 202.453125 C 161.972656 202.453125 202.390625 162.03125 202.390625 112.5 C 202.390625 62.96875 161.972656 22.546875 112.441406 22.546875 Z M 138.195312 128.152344 L 104.910156 161.4375 L 89.257812 145.785156 L 122.347656 112.5 L 89.257812 79.410156 L 104.910156 63.757812 L 138.195312 96.847656 L 153.847656 112.5 Z M 138.195312 128.152344 " fill-opacity="1" fill-rule="nonzero"/></g></svg>