<svg xmlns="http://www.w3.org/2000/svg" xmlns:xlink="http://www.w3.org/1999/xlink" width="300" zoomAndPan="magnify" viewBox="0 0 224.87999 225" height="300" preserveAspectRatio="xMidYMid meet" version="1.0"><defs><clipPath id="eb8e8d2114"><path d="M 0 0.0585938 L 224.761719 0.0585938 L 224.761719 224.9375 L 0 224.9375 Z M 0 0.0585938 " clip-rule="nonzero"/></clipPath><clipPath id="36e1789245"><path d="M 22.488281 42 L 202.390625 42 L 202.390625 183.226562 L 22.488281 183.226562 Z M 22.488281 42 " clip-rule="nonzero"/></clipPath></defs><g clip-path="url(#eb8e8d2114)"><path fill="none" d="M 0 0.0585938 L 224.878906 0.0585938 L 224.878906 224.941406 L 0 224.941406 Z M 0 0.0585938 " fill-opacity="1" fill-rule="nonzero"/><path fill="none" d="M 0 0.0585938 L 224.878906 0.0585938 L 224.878906 224.941406 L 0 224.941406 Z M 0 0.0585938 " fill-opacity="1" fill-rule="nonzero"/></g><g clip-path="url(#36e1789245)"><path fill="#ffffff" d="M 88.183594 99.808594 L 79.847656 92.066406 L 105.804688 69.996094 L 108.382812 72.390625 Z M 48.621094 137.925781 L 67.964844 117.199219 L 63.90625 113.441406 L 44.5625 134.164062 L 44.695312 138.058594 Z M 72.851562 111.941406 L 73.324219 112.386719 L 75.519531 110.015625 L 75.050781 109.566406 L 73.03125 107.6875 L 70.542969 105.359375 L 68.347656 107.730469 L 68.816406 108.179688 Z M 202.398438 88.261719 L 202.398438 161.871094 L 123.085938 161.871094 L 123.085938 151.621094 C 124.476562 151.488281 125.914062 151.355469 127.371094 151.265625 C 128.894531 155.359375 132.839844 158.292969 137.457031 158.292969 C 143.398438 158.292969 148.21875 153.480469 148.21875 147.546875 C 148.21875 141.617188 143.398438 136.804688 137.457031 136.804688 C 132.726562 136.804688 128.714844 139.871094 127.257812 144.125 C 125.800781 144.214844 124.410156 144.324219 123.085938 144.460938 L 123.085938 88.28125 L 202.398438 88.28125 Z M 173.347656 147.546875 C 173.347656 141.617188 168.527344 136.804688 162.585938 136.804688 C 156.644531 136.804688 151.824219 141.617188 151.824219 147.546875 C 151.824219 153.480469 156.644531 158.292969 162.585938 158.292969 C 168.503906 158.292969 173.347656 153.457031 173.347656 147.546875 Z M 198.453125 147.546875 C 198.453125 141.617188 193.632812 136.804688 187.691406 136.804688 C 181.753906 136.804688 176.933594 141.617188 176.933594 147.546875 C 176.933594 153.480469 181.753906 158.292969 187.691406 158.292969 C 193.632812 158.292969 198.453125 153.457031 198.453125 147.546875 Z M 198.789062 95.445312 C 198.789062 93.476562 197.175781 91.863281 195.203125 91.863281 L 130.261719 91.863281 C 128.289062 91.863281 126.675781 93.476562 126.675781 95.445312 L 126.675781 129.621094 C 126.675781 131.589844 128.289062 133.203125 130.261719 133.203125 L 195.203125 133.203125 C 197.175781 133.203125 198.789062 131.589844 198.789062 129.621094 Z M 115.871094 63.796875 L 113.851562 61.917969 L 110.984375 64.984375 L 113 66.863281 Z M 73.277344 98.128906 L 73.503906 98.332031 L 83.007812 107.171875 L 83.03125 107.195312 L 83.320312 107.464844 L 84.507812 106.1875 L 73.726562 96.136719 L 72.539062 97.414062 L 72.808594 97.660156 Z M 38.554688 177.136719 L 30.125 177.136719 L 30.125 183.203125 L 101.566406 183.203125 L 101.566406 177.136719 Z M 133.847656 99.027344 L 191.617188 99.027344 L 191.617188 126.039062 L 133.847656 126.039062 Z M 172.898438 119.527344 C 172.898438 121.496094 174.511719 123.109375 176.484375 123.109375 L 184.464844 123.109375 C 186.4375 123.109375 188.050781 121.496094 188.050781 119.527344 C 188.050781 117.558594 186.4375 115.945312 184.464844 115.945312 L 176.484375 115.945312 C 174.511719 115.945312 172.898438 117.558594 172.898438 119.527344 Z M 155.03125 119.527344 C 155.03125 121.496094 156.644531 123.109375 158.617188 123.109375 L 166.597656 123.109375 C 168.570312 123.109375 170.183594 121.496094 170.183594 119.527344 C 170.183594 117.558594 168.570312 115.945312 166.597656 115.945312 L 158.617188 115.945312 C 156.644531 115.945312 155.03125 117.558594 155.03125 119.527344 Z M 137.433594 151.128906 C 139.40625 151.128906 141.019531 149.519531 141.019531 147.546875 C 141.019531 145.578125 139.40625 143.96875 137.433594 143.96875 C 136.15625 143.96875 135.058594 144.640625 134.410156 145.625 C 134.050781 146.183594 133.824219 146.832031 133.824219 147.546875 C 133.824219 148.265625 134.050781 148.914062 134.410156 149.472656 C 135.058594 150.457031 136.179688 151.128906 137.433594 151.128906 Z M 123.085938 183.203125 L 135.214844 183.203125 L 140.683594 177.203125 C 141.355469 176.464844 142.320312 176.039062 143.328125 176.039062 L 182.15625 176.039062 C 183.164062 176.039062 184.128906 176.464844 184.800781 177.203125 L 190.269531 183.203125 L 202.398438 183.203125 L 202.398438 169.058594 L 123.085938 169.058594 Z M 162.5625 143.945312 C 160.589844 143.945312 158.976562 145.558594 158.976562 147.527344 C 158.976562 149.496094 160.589844 151.105469 162.5625 151.105469 C 164.535156 151.105469 166.148438 149.496094 166.148438 147.527344 C 166.148438 145.558594 164.535156 143.945312 162.5625 143.945312 Z M 187.691406 143.945312 C 185.71875 143.945312 184.105469 145.558594 184.105469 147.527344 C 184.105469 149.496094 185.71875 151.105469 187.691406 151.105469 C 189.664062 151.105469 191.277344 149.496094 191.277344 147.527344 C 191.277344 145.558594 189.664062 143.945312 187.691406 143.945312 Z M 134.117188 62.410156 C 131.15625 66.953125 127.011719 73.554688 122.683594 81.097656 L 131 81.097656 C 134.003906 75.996094 137.074219 71.003906 140.125 66.304688 C 142.433594 62.746094 143.914062 59.050781 144.539062 55.292969 C 144.765625 53.972656 144.628906 52.449219 144.113281 50.636719 C 143.015625 46.675781 139.855469 43.609375 135.84375 42.601562 C 131.898438 41.617188 127.886719 42.757812 125.015625 45.78125 C 124.972656 45.824219 124.925781 45.871094 124.882812 45.914062 L 116.992188 55.179688 C 117.167969 55.316406 117.347656 55.425781 117.527344 55.582031 L 121.945312 59.679688 C 122.078125 59.792969 122.167969 59.925781 122.28125 60.058594 L 130.351562 50.613281 C 131.742188 49.160156 133.464844 49.382812 134.140625 49.5625 C 135.664062 49.945312 136.808594 51.0625 137.234375 52.5625 C 137.546875 53.679688 137.5 54.128906 137.5 54.128906 C 137.03125 56.902344 135.886719 59.703125 134.117188 62.410156 Z M 34.96875 157.957031 L 34.96875 169.953125 L 42.140625 169.953125 L 42.140625 156.457031 C 42.140625 156.210938 42.121094 155.988281 42.074219 155.761719 C 42.050781 155.671875 42.007812 155.582031 41.984375 155.496094 C 41.941406 155.359375 41.917969 155.226562 41.871094 155.113281 C 41.828125 155 41.761719 154.890625 41.691406 154.777344 C 41.648438 154.6875 41.605469 154.597656 41.535156 154.507812 C 41.402344 154.308594 41.265625 154.128906 41.089844 153.972656 L 37.835938 150.75 L 42.902344 145.3125 C 42.097656 145.242188 41.3125 144.929688 40.730469 144.371094 L 38.757812 142.535156 C 38.152344 141.976562 37.792969 141.238281 37.660156 140.429688 L 32.75 145.714844 L 30.105469 143.09375 C 28.691406 141.707031 26.425781 141.707031 25.039062 143.117188 C 23.648438 144.527344 23.648438 146.789062 25.058594 148.175781 L 27.863281 150.949219 L 23.9375 155.160156 C 22.59375 156.613281 22.660156 158.875 24.117188 160.214844 C 24.8125 160.867188 25.6875 161.179688 26.5625 161.179688 C 27.527344 161.179688 28.488281 160.796875 29.183594 160.039062 L 32.949219 155.988281 Z M 92.847656 169.976562 L 92.847656 117.421875 C 92.847656 116.394531 92.398438 115.410156 91.636719 114.738281 L 88.746094 112.1875 L 86.144531 114.960938 C 85.429688 115.722656 84.488281 116.101562 83.523438 116.101562 C 82.941406 116.101562 82.378906 115.945312 81.863281 115.675781 L 85.695312 119.035156 L 85.695312 169.953125 L 92.847656 169.953125 Z M 105.847656 149.136719 C 108.449219 151.488281 111.699219 152.136719 115.421875 152.136719 C 115.578125 152.136719 115.757812 152.113281 115.914062 152.113281 L 115.914062 144.953125 C 113.582031 144.996094 111.699219 144.75 110.691406 143.832031 C 109.414062 142.667969 108.742188 139.871094 108.742188 135.730469 C 108.742188 129.308594 111.566406 120.265625 115.914062 110.238281 L 115.914062 93.476562 C 108.25 108.292969 101.566406 124.429688 101.566406 135.730469 C 101.546875 142.222656 102.914062 146.472656 105.847656 149.136719 Z M 105.847656 149.136719 " fill-opacity="1" fill-rule="nonzero"/></g></svg>