<svg xmlns="http://www.w3.org/2000/svg" xmlns:xlink="http://www.w3.org/1999/xlink" width="300" zoomAndPan="magnify" viewBox="0 0 224.87999 225" height="300" preserveAspectRatio="xMidYMid meet" version="1.0"><defs><clipPath id="c778edbee8"><path d="M 0 0.0585938 L 224.761719 0.0585938 L 224.761719 224.9375 L 0 224.9375 Z M 0 0.0585938 " clip-rule="nonzero"/></clipPath><clipPath id="7dc564ae20"><path d="M 22.488281 26 L 202 26 L 202 199 L 22.488281 199 Z M 22.488281 26 " clip-rule="nonzero"/></clipPath></defs><g clip-path="url(#c778edbee8)"><path fill="none" d="M 0 0.0585938 L 224.878906 0.0585938 L 224.878906 224.941406 L 0 224.941406 Z M 0 0.0585938 " fill-opacity="1" fill-rule="nonzero"/><path fill="none" d="M 0 0.0585938 L 224.878906 0.0585938 L 224.878906 224.941406 L 0 224.941406 Z M 0 0.0585938 " fill-opacity="1" fill-rule="nonzero"/></g><g clip-path="url(#7dc564ae20)"><path fill="#000000" d="M 194.132812 97.199219 C 191.554688 94.027344 189.117188 91.035156 188.140625 88.03125 C 187.101562 84.832031 187.3125 80.664062 187.519531 76.628906 C 187.816406 70.695312 188.128906 64.554688 184.796875 59.976562 C 181.429688 55.351562 175.464844 53.75 169.695312 52.203125 C 165.648438 51.117188 161.824219 50.089844 159.15625 48.144531 C 156.535156 46.238281 154.410156 42.949219 152.15625 39.464844 C 148.890625 34.410156 145.515625 29.183594 139.992188 27.390625 C 134.714844 25.675781 129.027344 27.84375 123.535156 29.945312 C 119.707031 31.40625 115.753906 32.917969 112.289062 32.917969 C 108.828125 32.917969 104.871094 31.40625 101.046875 29.945312 C 95.550781 27.84375 89.871094 25.671875 84.585938 27.390625 C 79.0625 29.183594 75.6875 34.410156 72.421875 39.464844 C 70.167969 42.949219 68.042969 46.238281 65.421875 48.144531 C 62.753906 50.089844 58.929688 51.113281 54.882812 52.199219 C 49.113281 53.746094 43.148438 55.347656 39.78125 59.976562 C 36.449219 64.554688 36.761719 70.691406 37.058594 76.628906 C 37.265625 80.660156 37.476562 84.832031 36.4375 88.03125 C 35.464844 91.035156 33.027344 94.027344 30.445312 97.199219 C 26.621094 101.898438 22.664062 106.761719 22.664062 112.6875 C 22.664062 118.617188 26.621094 123.476562 30.445312 128.179688 C 33.027344 131.351562 35.464844 134.34375 36.4375 137.347656 C 37.476562 140.546875 37.265625 144.714844 37.058594 148.746094 C 36.761719 154.683594 36.449219 160.820312 39.78125 165.398438 C 43.148438 170.027344 49.113281 171.628906 54.882812 173.175781 C 58.929688 174.261719 62.753906 175.289062 65.421875 177.230469 C 68.042969 179.140625 70.167969 182.429688 72.421875 185.914062 C 75.6875 190.96875 79.0625 196.191406 84.585938 197.988281 C 85.925781 198.421875 87.289062 198.609375 88.667969 198.609375 C 92.734375 198.609375 96.941406 197 101.046875 195.433594 C 104.871094 193.972656 108.828125 192.460938 112.289062 192.460938 C 115.753906 192.460938 119.707031 193.972656 123.535156 195.433594 C 129.027344 197.53125 134.707031 199.699219 139.992188 197.988281 C 145.515625 196.191406 148.890625 190.96875 152.15625 185.914062 C 154.410156 182.429688 156.535156 179.140625 159.15625 177.230469 C 161.824219 175.289062 165.648438 174.265625 169.695312 173.179688 C 175.464844 171.632812 181.429688 170.03125 184.796875 165.402344 C 188.128906 160.824219 187.816406 154.683594 187.519531 148.75 C 187.3125 144.71875 187.101562 140.546875 188.140625 137.347656 C 189.117188 134.34375 191.554688 131.351562 194.132812 128.179688 C 197.957031 123.476562 201.914062 118.617188 201.914062 112.6875 C 201.914062 106.761719 197.957031 101.898438 194.132812 97.199219 Z M 112.289062 175.230469 C 77.820312 175.230469 49.777344 147.171875 49.777344 112.6875 C 49.777344 78.203125 77.820312 50.148438 112.289062 50.148438 C 146.757812 50.148438 174.800781 78.203125 174.800781 112.6875 C 174.800781 147.171875 146.757812 175.230469 112.289062 175.230469 Z M 112.289062 175.230469 " fill-opacity="1" fill-rule="nonzero"/></g><path fill="#000000" d="M 112.289062 54.667969 C 80.3125 54.667969 54.296875 80.699219 54.296875 112.6875 C 54.296875 144.679688 80.3125 170.707031 112.289062 170.707031 C 144.265625 170.707031 170.28125 144.679688 170.28125 112.6875 C 170.28125 80.699219 144.265625 54.667969 112.289062 54.667969 Z M 150.824219 91.363281 L 100.300781 141.910156 C 99.878906 142.335938 99.300781 142.574219 98.703125 142.574219 C 98.105469 142.574219 97.53125 142.335938 97.105469 141.910156 L 73.753906 118.550781 C 72.871094 117.667969 72.871094 116.234375 73.753906 115.351562 L 82.277344 106.828125 C 83.15625 105.945312 84.589844 105.945312 85.46875 106.828125 L 98.703125 120.066406 L 139.109375 79.640625 C 139.992188 78.757812 141.421875 78.757812 142.304688 79.640625 L 150.824219 88.167969 C 151.707031 89.050781 151.707031 90.480469 150.824219 91.363281 Z M 150.824219 91.363281 " fill-opacity="1" fill-rule="nonzero"/></svg>